<?xml version="1.0" encoding="UTF-8" standalone="no"?>
<!DOCTYPE svg PUBLIC "-//W3C//DTD SVG 1.1//EN"
 "http://www.w3.org/Graphics/SVG/1.1/DTD/svg11.dtd">
<!-- Generated by graphviz version 14.0.0 (20250921.2048)
 -->
<!-- Title: Timeline Pages: 1 -->
<svg width="800pt" height="138pt"
 viewBox="0.00 0.00 800.00 138.00" xmlns="http://www.w3.org/2000/svg" xmlns:xlink="http://www.w3.org/1999/xlink">
<g id="graph0" class="graph" transform="scale(1 1) rotate(0) translate(4 133.6)">
<title>Timeline</title>
<!-- discovery -->
<g id="node1" class="node">
<title>discovery</title>
<ellipse fill="#888888" stroke="black" cx="64.8" cy="-64.8" rx="64.8" ry="64.8"/>
<text xml:space="preserve" text-anchor="middle" x="64.8" y="-55.5" font-family="Arial" font-size="24.00" fill="white">01</text>
</g>
<!-- design -->
<g id="node2" class="node">
<title>design</title>
<ellipse fill="#4682b4" stroke="black" cx="230.4" cy="-64.8" rx="64.8" ry="64.8"/>
<text xml:space="preserve" text-anchor="middle" x="230.4" y="-55.5" font-family="Arial" font-size="24.00" fill="white">02</text>
</g>
<!-- discovery&#45;&gt;design -->
<g id="edge1" class="edge">
<title>discovery&#45;&gt;design</title>
<path fill="none" stroke="#4a7c59" stroke-width="3" d="M129.77,-64.8C129.77,-64.8 150.8,-64.8 150.8,-64.8"/>
<polygon fill="#4a7c59" stroke="#4a7c59" stroke-width="3" points="150.8,-68.3 160.8,-64.8 150.8,-61.3 150.8,-68.3"/>
</g>
<!-- permitting -->
<g id="node3" class="node">
<title>permitting</title>
<ellipse fill="#ff8c00" stroke="black" cx="396" cy="-64.8" rx="64.8" ry="64.8"/>
<text xml:space="preserve" text-anchor="middle" x="396" y="-55.5" font-family="Arial" font-size="24.00" fill="white">03</text>
</g>
<!-- design&#45;&gt;permitting -->
<g id="edge2" class="edge">
<title>design&#45;&gt;permitting</title>
<path fill="none" stroke="#4a7c59" stroke-width="3" d="M295.37,-64.8C295.37,-64.8 316.4,-64.8 316.4,-64.8"/>
<polygon fill="#4a7c59" stroke="#4a7c59" stroke-width="3" points="316.4,-68.3 326.4,-64.8 316.4,-61.3 316.4,-68.3"/>
</g>
<!-- construction -->
<g id="node4" class="node">
<title>construction</title>
<ellipse fill="#228b22" stroke="black" cx="561.6" cy="-64.8" rx="64.8" ry="64.8"/>
<text xml:space="preserve" text-anchor="middle" x="561.6" y="-55.5" font-family="Arial" font-size="24.00" fill="white">04</text>
</g>
<!-- permitting&#45;&gt;construction -->
<g id="edge3" class="edge">
<title>permitting&#45;&gt;construction</title>
<path fill="none" stroke="#4a7c59" stroke-width="3" d="M460.97,-64.8C460.97,-64.8 482,-64.8 482,-64.8"/>
<polygon fill="#4a7c59" stroke="#4a7c59" stroke-width="3" points="482,-68.3 492,-64.8 482,-61.3 482,-68.3"/>
</g>
<!-- launch -->
<g id="node5" class="node">
<title>launch</title>
<ellipse fill="#ffd700" stroke="black" cx="727.2" cy="-64.8" rx="64.8" ry="64.8"/>
<text xml:space="preserve" text-anchor="middle" x="727.2" y="-55.5" font-family="Arial" font-size="24.00">05</text>
</g>
<!-- construction&#45;&gt;launch -->
<g id="edge4" class="edge">
<title>construction&#45;&gt;launch</title>
<path fill="none" stroke="#4a7c59" stroke-width="3" d="M626.57,-64.8C626.57,-64.8 647.6,-64.8 647.6,-64.8"/>
<polygon fill="#4a7c59" stroke="#4a7c59" stroke-width="3" points="647.6,-68.3 657.6,-64.8 647.6,-61.3 647.6,-68.3"/>
</g>
</g>
</svg>
