<?xml version="1.0" encoding="UTF-8" standalone="no"?>
<!DOCTYPE svg PUBLIC "-//W3C//DTD SVG 1.1//EN"
 "http://www.w3.org/Graphics/SVG/1.1/DTD/svg11.dtd">
<!-- Generated by graphviz version 14.0.0 (20250921.2048)
 -->
<!-- Title: EnergyFlow Pages: 1 -->
<svg width="436pt" height="687pt"
 viewBox="0.00 0.00 436.00 687.00" xmlns="http://www.w3.org/2000/svg" xmlns:xlink="http://www.w3.org/1999/xlink">
<g id="graph0" class="graph" transform="scale(1 1) rotate(0) translate(4 682.83)">
<title>EnergyFlow</title>
<text xml:space="preserve" text-anchor="start" x="94.88" y="-660.63" font-family="Arial" font-weight="bold" font-size="16.00">Integrated Energy System Flow</text>
<text xml:space="preserve" text-anchor="start" x="72" y="-644.63" font-family="Arial" font-size="16.00">Solar → Retreat + Bitcoin + Heat Reuse</text>
<g id="clust1" class="cluster">
<title>cluster_distribution</title>
<polygon fill="none" stroke="#4a7c59" stroke-dasharray="5,2" points="8,-258.25 8,-410.5 378,-410.5 378,-258.25 8,-258.25"/>
<text xml:space="preserve" text-anchor="middle" x="193" y="-395.1" font-family="Arial" font-size="12.00">Energy Distribution</text>
</g>
<g id="clust2" class="cluster">
<title>cluster_heat_use</title>
<polygon fill="none" stroke="#ff4500" stroke-dasharray="5,2" points="59,-8 59,-82.25 379,-82.25 379,-8 59,-8"/>
<text xml:space="preserve" text-anchor="middle" x="219" y="-66.85" font-family="Arial" font-size="12.00">Heat Applications</text>
</g>
<!-- sun -->
<g id="node1" class="node">
<title>sun</title>
<ellipse fill="#ffd700" stroke="#ff8c00" stroke-width="3" cx="208" cy="-602.42" rx="85.56" ry="36.42"/>
<text xml:space="preserve" text-anchor="middle" x="208" y="-611.82" font-family="Arial" font-size="13.00">SOLAR ENERGY</text>
<text xml:space="preserve" text-anchor="middle" x="208" y="-596.82" font-family="Arial" font-size="13.00">━━━━━</text>
<text xml:space="preserve" text-anchor="middle" x="208" y="-583.32" font-family="Arial" font-size="13.00">2,400 kWh/month</text>
</g>
<!-- solar -->
<g id="node2" class="node">
<title>solar</title>
<polygon fill="#ffa500" stroke="black" stroke-width="2" points="258,-513.5 158,-513.5 158,-453 258,-453 258,-513.5"/>
<text xml:space="preserve" text-anchor="middle" x="208" y="-499.05" font-family="Arial" font-size="11.00" fill="white">SOLAR PANELS</text>
<text xml:space="preserve" text-anchor="middle" x="208" y="-485.55" font-family="Arial" font-size="11.00" fill="white">━━━━━</text>
<text xml:space="preserve" text-anchor="middle" x="208" y="-473.55" font-family="Arial" font-size="11.00" fill="white">18 kW Array</text>
<text xml:space="preserve" text-anchor="middle" x="208" y="-460.05" font-family="Arial" font-size="11.00" fill="white">100% Production</text>
</g>
<!-- sun&#45;&gt;solar -->
<g id="edge1" class="edge">
<title>sun&#45;&gt;solar</title>
<path fill="none" stroke="#ffd700" stroke-width="2" d="M208,-564.67C208,-552.74 208,-539.4 208,-527.07"/>
<polygon fill="#ffd700" stroke="#ffd700" stroke-width="2" points="211.5,-527.23 208,-517.23 204.5,-527.23 211.5,-527.23"/>
<text xml:space="preserve" text-anchor="middle" x="230.88" y="-534.7" font-family="Times,serif" font-size="14.00">Sunlight</text>
</g>
<!-- retreat -->
<g id="node3" class="node">
<title>retreat</title>
<polygon fill="#e8f4f8" stroke="#4682b4" stroke-width="2" points="137.88,-380.25 16.12,-380.25 16.12,-266.25 137.88,-266.25 137.88,-380.25"/>
<text xml:space="preserve" text-anchor="middle" x="77" y="-365.8" font-family="Arial" font-size="11.00">RETREAT</text>
<text xml:space="preserve" text-anchor="middle" x="77" y="-352.3" font-family="Arial" font-size="11.00">Consumption</text>
<text xml:space="preserve" text-anchor="middle" x="77" y="-338.8" font-family="Arial" font-size="11.00">━━━━━</text>
<text xml:space="preserve" text-anchor="middle" x="77" y="-326.8" font-family="Arial" font-size="11.00">30%</text>
<text xml:space="preserve" text-anchor="middle" x="77" y="-313.3" font-family="Arial" font-size="11.00">720 kWh/month</text>
<text xml:space="preserve" text-anchor="middle" x="77" y="-286.8" font-family="Arial" font-size="11.00">Lights, Appliances</text>
<text xml:space="preserve" text-anchor="middle" x="77" y="-273.3" font-family="Arial" font-size="11.00">HVAC, Water Heating</text>
</g>
<!-- solar&#45;&gt;retreat -->
<g id="edge2" class="edge">
<title>solar&#45;&gt;retreat</title>
<path fill="none" stroke="#4682b4" stroke-width="2" d="M182.02,-452.01C171.14,-439.25 158.39,-424.21 147,-410.5 141.7,-404.12 136.21,-397.45 130.73,-390.77"/>
<polygon fill="#4682b4" stroke="#4682b4" stroke-width="2" points="133.71,-388.88 124.67,-383.35 128.29,-393.31 133.71,-388.88"/>
<text xml:space="preserve" text-anchor="middle" x="179.73" y="-421.7" font-family="Times,serif" font-size="14.00" fill="#4682b4">30%</text>
</g>
<!-- mining -->
<g id="node4" class="node">
<title>mining</title>
<polygon fill="#fff9e6" stroke="#f7931a" stroke-width="2" points="259.88,-380.25 156.12,-380.25 156.12,-266.25 259.88,-266.25 259.88,-380.25"/>
<text xml:space="preserve" text-anchor="middle" x="208" y="-365.8" font-family="Arial" font-size="11.00">BITCOIN</text>
<text xml:space="preserve" text-anchor="middle" x="208" y="-352.3" font-family="Arial" font-size="11.00">Mining</text>
<text xml:space="preserve" text-anchor="middle" x="208" y="-338.8" font-family="Arial" font-size="11.00">━━━━━</text>
<text xml:space="preserve" text-anchor="middle" x="208" y="-326.8" font-family="Arial" font-size="11.00">60%</text>
<text xml:space="preserve" text-anchor="middle" x="208" y="-313.3" font-family="Arial" font-size="11.00">1,440 kWh/month</text>
<text xml:space="preserve" text-anchor="middle" x="208" y="-286.8" font-family="Arial" font-size="11.00">4&#45;6 ASICs</text>
<text xml:space="preserve" text-anchor="middle" x="208" y="-273.3" font-family="Arial" font-size="11.00">Immersion Cooled</text>
</g>
<!-- solar&#45;&gt;mining -->
<g id="edge3" class="edge">
<title>solar&#45;&gt;mining</title>
<path fill="none" stroke="#f7931a" stroke-width="3" d="M208,-452.16C208,-436.02 208,-415.39 208,-395.44"/>
<polygon fill="#f7931a" stroke="#f7931a" stroke-width="3" points="211.5,-395.64 208,-385.64 204.5,-395.64 211.5,-395.64"/>
<text xml:space="preserve" text-anchor="middle" x="220.75" y="-421.7" font-family="Times,serif" font-size="14.00" fill="#f7931a">60%</text>
</g>
<!-- battery -->
<g id="node5" class="node">
<title>battery</title>
<polygon fill="#e8f8e8" stroke="#228b22" stroke-width="2" points="369.88,-380.25 278.12,-380.25 278.12,-266.25 369.88,-266.25 369.88,-380.25"/>
<text xml:space="preserve" text-anchor="middle" x="324" y="-365.8" font-family="Arial" font-size="11.00">STORAGE</text>
<text xml:space="preserve" text-anchor="middle" x="324" y="-352.3" font-family="Arial" font-size="11.00">Battery</text>
<text xml:space="preserve" text-anchor="middle" x="324" y="-338.8" font-family="Arial" font-size="11.00">━━━━━</text>
<text xml:space="preserve" text-anchor="middle" x="324" y="-326.8" font-family="Arial" font-size="11.00">10%</text>
<text xml:space="preserve" text-anchor="middle" x="324" y="-313.3" font-family="Arial" font-size="11.00">240 kWh/month</text>
<text xml:space="preserve" text-anchor="middle" x="324" y="-286.8" font-family="Arial" font-size="11.00">Nighttime Use</text>
<text xml:space="preserve" text-anchor="middle" x="324" y="-273.3" font-family="Arial" font-size="11.00">Backup Power</text>
</g>
<!-- solar&#45;&gt;battery -->
<g id="edge4" class="edge">
<title>solar&#45;&gt;battery</title>
<path fill="none" stroke="#228b22" d="M235.07,-452.28C246.01,-439.69 258.51,-424.7 269,-410.5 273.71,-404.12 278.46,-397.33 283.08,-390.48"/>
<polygon fill="#228b22" stroke="#228b22" points="285.83,-392.66 288.45,-382.4 280,-388.79 285.83,-392.66"/>
<text xml:space="preserve" text-anchor="middle" x="275.59" y="-421.7" font-family="Times,serif" font-size="14.00" fill="#228b22">10%</text>
</g>
<!-- revenue -->
<g id="node10" class="node">
<title>revenue</title>
<path fill="#90ee90" stroke="#228b22" stroke-width="3" d="M136.75,-213.75C136.75,-213.75 17.25,-213.75 17.25,-213.75 11.25,-213.75 5.25,-207.75 5.25,-201.75 5.25,-201.75 5.25,-121.25 5.25,-121.25 5.25,-115.25 11.25,-109.25 17.25,-109.25 17.25,-109.25 136.75,-109.25 136.75,-109.25 142.75,-109.25 148.75,-115.25 148.75,-121.25 148.75,-121.25 148.75,-201.75 148.75,-201.75 148.75,-207.75 142.75,-213.75 136.75,-213.75"/>
<text xml:space="preserve" text-anchor="middle" x="77" y="-198.35" font-family="Arial" font-size="12.00">REVENUE</text>
<text xml:space="preserve" text-anchor="middle" x="77" y="-184.1" font-family="Arial" font-size="12.00">━━━━━</text>
<text xml:space="preserve" text-anchor="middle" x="77" y="-157.35" font-family="Arial" font-size="12.00">$2,800 Guest Bookings</text>
<text xml:space="preserve" text-anchor="middle" x="77" y="-143.1" font-family="Arial" font-size="12.00">$1,400 Bitcoin Earnings</text>
<text xml:space="preserve" text-anchor="middle" x="77" y="-128.85" font-family="Arial" font-size="12.00">━━━━━</text>
<text xml:space="preserve" text-anchor="middle" x="77" y="-116.1" font-family="Arial" font-size="12.00">$4,200/month Total</text>
</g>
<!-- retreat&#45;&gt;revenue -->
<g id="edge9" class="edge">
<title>retreat&#45;&gt;revenue</title>
<path fill="none" stroke="black" stroke-dasharray="5,2" d="M77,-265.48C77,-252.78 77,-239.24 77,-226.28"/>
<polygon fill="black" stroke="black" points="80.5,-226.6 77,-216.6 73.5,-226.6 80.5,-226.6"/>
</g>
<!-- heat -->
<g id="node6" class="node">
<title>heat</title>
<polygon fill="#ffe4b5" stroke="#ff4500" stroke-width="2" points="298.75,-198.25 167.25,-198.25 167.25,-124.75 298.75,-124.75 298.75,-198.25"/>
<text xml:space="preserve" text-anchor="middle" x="233" y="-183.8" font-family="Arial" font-size="11.00">HEAT REUSE</text>
<text xml:space="preserve" text-anchor="middle" x="233" y="-170.3" font-family="Arial" font-size="11.00">━━━━━</text>
<text xml:space="preserve" text-anchor="middle" x="233" y="-158.3" font-family="Arial" font-size="11.00">95% Capture</text>
<text xml:space="preserve" text-anchor="middle" x="233" y="-131.8" font-family="Arial" font-size="11.00">Waste Heat from Mining</text>
</g>
<!-- mining&#45;&gt;heat -->
<g id="edge5" class="edge">
<title>mining&#45;&gt;heat</title>
<path fill="none" stroke="#ff4500" stroke-width="2" d="M216.88,-265.48C219.62,-247.98 222.61,-228.87 225.27,-211.91"/>
<polygon fill="#ff4500" stroke="#ff4500" stroke-width="2" points="228.71,-212.55 226.8,-202.13 221.79,-211.47 228.71,-212.55"/>
<text xml:space="preserve" text-anchor="middle" x="253.5" y="-234.95" font-family="Times,serif" font-size="14.00" fill="#ff4500">Waste Heat</text>
</g>
<!-- mining&#45;&gt;revenue -->
<g id="edge10" class="edge">
<title>mining&#45;&gt;revenue</title>
<path fill="none" stroke="black" stroke-dasharray="5,2" d="M161.45,-265.48C150.41,-252.02 138.58,-237.59 127.38,-223.94"/>
<polygon fill="black" stroke="black" points="130.13,-221.77 121.08,-216.26 124.72,-226.21 130.13,-221.77"/>
</g>
<!-- hotwater -->
<g id="node7" class="node">
<title>hotwater</title>
<polygon fill="#ffe4e1" stroke="black" points="170.88,-52 67.12,-52 67.12,-16 170.88,-16 170.88,-52"/>
<text xml:space="preserve" text-anchor="middle" x="119" y="-37.05" font-family="Arial" font-size="11.00">Hot Water</text>
<text xml:space="preserve" text-anchor="middle" x="119" y="-23.55" font-family="Arial" font-size="11.00">60&#45;100% of needs</text>
</g>
<!-- heat&#45;&gt;hotwater -->
<g id="edge6" class="edge">
<title>heat&#45;&gt;hotwater</title>
<path fill="none" stroke="black" stroke-width="1.5" d="M199.72,-123.86C181.48,-103.78 159.28,-79.35 142.79,-61.19"/>
<polygon fill="black" stroke="black" stroke-width="1.5" points="145.58,-59.05 136.26,-54 140.4,-63.76 145.58,-59.05"/>
</g>
<!-- heating -->
<g id="node8" class="node">
<title>heating</title>
<polygon fill="#ffe4e1" stroke="black" points="276.62,-52 189.38,-52 189.38,-16 276.62,-16 276.62,-52"/>
<text xml:space="preserve" text-anchor="middle" x="233" y="-37.05" font-family="Arial" font-size="11.00">Space Heating</text>
<text xml:space="preserve" text-anchor="middle" x="233" y="-23.55" font-family="Arial" font-size="11.00">Radiant Floors</text>
</g>
<!-- heat&#45;&gt;heating -->
<g id="edge7" class="edge">
<title>heat&#45;&gt;heating</title>
<path fill="none" stroke="black" stroke-width="1.5" d="M233,-123.86C233,-104.98 233,-82.25 233,-64.5"/>
<polygon fill="black" stroke="black" stroke-width="1.5" points="236.5,-64.59 233,-54.59 229.5,-64.59 236.5,-64.59"/>
</g>
<!-- hottub -->
<g id="node9" class="node">
<title>hottub</title>
<polygon fill="#ffe4e1" stroke="black" points="371.38,-52 294.62,-52 294.62,-16 371.38,-16 371.38,-52"/>
<text xml:space="preserve" text-anchor="middle" x="333" y="-37.05" font-family="Arial" font-size="11.00">Hot Tub/Spa</text>
<text xml:space="preserve" text-anchor="middle" x="333" y="-23.55" font-family="Arial" font-size="11.00">Year&#45;round</text>
</g>
<!-- heat&#45;&gt;hottub -->
<g id="edge8" class="edge">
<title>heat&#45;&gt;hottub</title>
<path fill="none" stroke="black" stroke-width="1.5" d="M262.19,-123.86C278.05,-103.96 297.31,-79.8 311.73,-61.69"/>
<polygon fill="black" stroke="black" stroke-width="1.5" points="314.29,-64.1 317.78,-54.1 308.81,-59.74 314.29,-64.1"/>
</g>
<!-- badge -->
<g id="node11" class="node">
<title>badge</title>
<path fill="#4a7c59" stroke="black" stroke-width="3" d="M416.25,-620.42C416.25,-620.42 323.75,-620.42 323.75,-620.42 317.75,-620.42 311.75,-614.42 311.75,-608.42 311.75,-608.42 311.75,-596.42 311.75,-596.42 311.75,-590.42 317.75,-584.42 323.75,-584.42 323.75,-584.42 416.25,-584.42 416.25,-584.42 422.25,-584.42 428.25,-590.42 428.25,-596.42 428.25,-596.42 428.25,-608.42 428.25,-608.42 428.25,-614.42 422.25,-620.42 416.25,-620.42"/>
<text xml:space="preserve" text-anchor="middle" x="370" y="-605.47" font-family="Arial" font-size="11.00" fill="white">100% RENEWABLE</text>
<text xml:space="preserve" text-anchor="middle" x="370" y="-591.97" font-family="Arial" font-size="11.00" fill="white">ZERO WASTE</text>
</g>
</g>
</svg>
