<?xml version="1.0" encoding="UTF-8" standalone="no"?>
<!DOCTYPE svg PUBLIC "-//W3C//DTD SVG 1.1//EN"
 "http://www.w3.org/Graphics/SVG/1.1/DTD/svg11.dtd">
<!-- Generated by graphviz version 14.0.0 (20250921.2048)
 -->
<!-- Title: EnergyFlow Pages: 1 -->
<svg width="429pt" height="568pt"
 viewBox="0.00 0.00 429.00 568.00" xmlns="http://www.w3.org/2000/svg" xmlns:xlink="http://www.w3.org/1999/xlink">
<g id="graph0" class="graph" transform="scale(1 1) rotate(0) translate(4 563.5)">
<title>EnergyFlow</title>
<text xml:space="preserve" text-anchor="start" x="91.38" y="-541.3" font-family="Arial" font-weight="bold" font-size="16.00">Integrated Energy System Flow</text>
<text xml:space="preserve" text-anchor="start" x="68.5" y="-525.3" font-family="Arial" font-size="16.00">Solar → Retreat + Bitcoin + Heat Reuse</text>
<g id="clust1" class="cluster">
<title>cluster_distribution</title>
<polygon fill="none" stroke="#4a7c59" stroke-dasharray="5,2" points="8,-231.25 8,-343.5 372,-343.5 372,-231.25 8,-231.25"/>
<text xml:space="preserve" text-anchor="middle" x="190" y="-328.1" font-family="Arial" font-size="12.00">Energy Distribution</text>
</g>
<g id="clust2" class="cluster">
<title>cluster_heat_use</title>
<polygon fill="none" stroke="#ff4500" stroke-dasharray="5,2" points="74,-8 74,-82.25 354,-82.25 354,-8 74,-8"/>
<text xml:space="preserve" text-anchor="middle" x="214" y="-66.85" font-family="Arial" font-size="12.00">Heat Applications</text>
</g>
<!-- sun -->
<g id="node1" class="node">
<title>sun</title>
<ellipse fill="#ffd700" stroke="#ff8c00" stroke-width="3" cx="208" cy="-501.5" rx="78.64" ry="18"/>
<text xml:space="preserve" text-anchor="middle" x="208" y="-496.65" font-family="Arial" font-size="13.00">SOLAR ENERGY</text>
</g>
<!-- solar -->
<g id="node2" class="node">
<title>solar</title>
<polygon fill="#ffa500" stroke="black" stroke-width="2" points="258,-431 158,-431 158,-370.5 258,-370.5 258,-431"/>
<text xml:space="preserve" text-anchor="middle" x="208" y="-416.55" font-family="Arial" font-size="11.00" fill="white">SOLAR PANELS</text>
<text xml:space="preserve" text-anchor="middle" x="208" y="-403.05" font-family="Arial" font-size="11.00" fill="white">━━━━━</text>
<text xml:space="preserve" text-anchor="middle" x="208" y="-391.05" font-family="Arial" font-size="11.00" fill="white">Oversized Array</text>
<text xml:space="preserve" text-anchor="middle" x="208" y="-377.55" font-family="Arial" font-size="11.00" fill="white">100% Production</text>
</g>
<!-- sun&#45;&gt;solar -->
<g id="edge1" class="edge">
<title>sun&#45;&gt;solar</title>
<path fill="none" stroke="#ffd700" stroke-width="2" d="M208,-482.39C208,-471.78 208,-457.9 208,-444.66"/>
<polygon fill="#ffd700" stroke="#ffd700" stroke-width="2" points="211.5,-444.79 208,-434.79 204.5,-444.79 211.5,-444.79"/>
<text xml:space="preserve" text-anchor="middle" x="230.88" y="-452.2" font-family="Times,serif" font-size="14.00">Sunlight</text>
</g>
<!-- retreat -->
<g id="node3" class="node">
<title>retreat</title>
<polygon fill="#e8f4f8" stroke="#4682b4" stroke-width="2" points="137.88,-313.25 16.12,-313.25 16.12,-239.25 137.88,-239.25 137.88,-313.25"/>
<text xml:space="preserve" text-anchor="middle" x="77" y="-298.8" font-family="Arial" font-size="11.00">RETREAT</text>
<text xml:space="preserve" text-anchor="middle" x="77" y="-285.3" font-family="Arial" font-size="11.00">Consumption</text>
<text xml:space="preserve" text-anchor="middle" x="77" y="-271.8" font-family="Arial" font-size="11.00">━━━━━</text>
<text xml:space="preserve" text-anchor="middle" x="77" y="-259.8" font-family="Arial" font-size="11.00">Lights, Appliances</text>
<text xml:space="preserve" text-anchor="middle" x="77" y="-246.3" font-family="Arial" font-size="11.00">HVAC, Water Heating</text>
</g>
<!-- solar&#45;&gt;retreat -->
<g id="edge2" class="edge">
<title>solar&#45;&gt;retreat</title>
<path fill="none" stroke="#4682b4" stroke-width="2" d="M175.32,-369.76C166.14,-361.29 156.16,-352.06 147,-343.5 139.86,-336.83 132.34,-329.76 124.99,-322.82"/>
<polygon fill="#4682b4" stroke="#4682b4" stroke-width="2" points="127.67,-320.54 117.99,-316.21 122.86,-325.63 127.67,-320.54"/>
</g>
<!-- mining -->
<g id="node4" class="node">
<title>mining</title>
<polygon fill="#fff9e6" stroke="#f7931a" stroke-width="2" points="259.88,-313.25 156.12,-313.25 156.12,-239.25 259.88,-239.25 259.88,-313.25"/>
<text xml:space="preserve" text-anchor="middle" x="208" y="-298.8" font-family="Arial" font-size="11.00">BITCOIN</text>
<text xml:space="preserve" text-anchor="middle" x="208" y="-285.3" font-family="Arial" font-size="11.00">Mining</text>
<text xml:space="preserve" text-anchor="middle" x="208" y="-271.8" font-family="Arial" font-size="11.00">━━━━━</text>
<text xml:space="preserve" text-anchor="middle" x="208" y="-259.8" font-family="Arial" font-size="11.00">ASIC Miners</text>
<text xml:space="preserve" text-anchor="middle" x="208" y="-246.3" font-family="Arial" font-size="11.00">Immersion Cooled</text>
</g>
<!-- solar&#45;&gt;mining -->
<g id="edge3" class="edge">
<title>solar&#45;&gt;mining</title>
<path fill="none" stroke="#f7931a" stroke-width="3" d="M208,-369.78C208,-357.27 208,-342.38 208,-328.24"/>
<polygon fill="#f7931a" stroke="#f7931a" stroke-width="3" points="211.5,-328.44 208,-318.44 204.5,-328.44 211.5,-328.44"/>
</g>
<!-- battery -->
<g id="node5" class="node">
<title>battery</title>
<polygon fill="#e8f8e8" stroke="#228b22" stroke-width="2" points="364.25,-313.25 277.75,-313.25 277.75,-239.25 364.25,-239.25 364.25,-313.25"/>
<text xml:space="preserve" text-anchor="middle" x="321" y="-298.8" font-family="Arial" font-size="11.00">STORAGE</text>
<text xml:space="preserve" text-anchor="middle" x="321" y="-285.3" font-family="Arial" font-size="11.00">Battery</text>
<text xml:space="preserve" text-anchor="middle" x="321" y="-271.8" font-family="Arial" font-size="11.00">━━━━━</text>
<text xml:space="preserve" text-anchor="middle" x="321" y="-259.8" font-family="Arial" font-size="11.00">Nighttime Use</text>
<text xml:space="preserve" text-anchor="middle" x="321" y="-246.3" font-family="Arial" font-size="11.00">Backup Power</text>
</g>
<!-- solar&#45;&gt;battery -->
<g id="edge4" class="edge">
<title>solar&#45;&gt;battery</title>
<path fill="none" stroke="#228b22" d="M242.49,-369.73C251.4,-361.5 260.79,-352.39 269,-343.5 274.93,-337.08 280.92,-330.05 286.63,-323.04"/>
<polygon fill="#228b22" stroke="#228b22" points="289.22,-325.4 292.73,-315.4 283.76,-321.03 289.22,-325.4"/>
</g>
<!-- revenue -->
<g id="node10" class="node">
<title>revenue</title>
<path fill="#90ee90" stroke="#228b22" stroke-width="3" d="M119.88,-186.75C119.88,-186.75 40.12,-186.75 40.12,-186.75 34.12,-186.75 28.12,-180.75 28.12,-174.75 28.12,-174.75 28.12,-121.25 28.12,-121.25 28.12,-115.25 34.12,-109.25 40.12,-109.25 40.12,-109.25 119.88,-109.25 119.88,-109.25 125.88,-109.25 131.88,-115.25 131.88,-121.25 131.88,-121.25 131.88,-174.75 131.88,-174.75 131.88,-180.75 125.88,-186.75 119.88,-186.75"/>
<text xml:space="preserve" text-anchor="middle" x="80" y="-171.35" font-family="Arial" font-size="12.00">REVENUE</text>
<text xml:space="preserve" text-anchor="middle" x="80" y="-157.1" font-family="Arial" font-size="12.00">━━━━━</text>
<text xml:space="preserve" text-anchor="middle" x="80" y="-130.35" font-family="Arial" font-size="12.00">Guest Bookings</text>
<text xml:space="preserve" text-anchor="middle" x="80" y="-116.1" font-family="Arial" font-size="12.00">Bitcoin Earnings</text>
</g>
<!-- retreat&#45;&gt;revenue -->
<g id="edge9" class="edge">
<title>retreat&#45;&gt;revenue</title>
<path fill="none" stroke="black" stroke-dasharray="5,2" d="M77.88,-238.39C78.17,-226.12 78.5,-212.24 78.81,-199.14"/>
<polygon fill="black" stroke="black" points="82.3,-199.47 79.04,-189.39 75.3,-199.31 82.3,-199.47"/>
</g>
<!-- heat -->
<g id="node6" class="node">
<title>heat</title>
<polygon fill="#ffe4b5" stroke="#ff4500" stroke-width="2" points="265.12,-184.75 150.88,-184.75 150.88,-111.25 265.12,-111.25 265.12,-184.75"/>
<text xml:space="preserve" text-anchor="middle" x="208" y="-170.3" font-family="Arial" font-size="11.00">HEAT REUSE</text>
<text xml:space="preserve" text-anchor="middle" x="208" y="-156.8" font-family="Arial" font-size="11.00">━━━━━</text>
<text xml:space="preserve" text-anchor="middle" x="208" y="-144.8" font-family="Arial" font-size="11.00">Waste Heat Capture</text>
<text xml:space="preserve" text-anchor="middle" x="208" y="-118.3" font-family="Arial" font-size="11.00">From Mining</text>
</g>
<!-- mining&#45;&gt;heat -->
<g id="edge5" class="edge">
<title>mining&#45;&gt;heat</title>
<path fill="none" stroke="#ff4500" stroke-width="2" d="M208,-238.39C208,-225.95 208,-211.84 208,-198.58"/>
<polygon fill="#ff4500" stroke="#ff4500" stroke-width="2" points="211.5,-198.71 208,-188.71 204.5,-198.71 211.5,-198.71"/>
<text xml:space="preserve" text-anchor="middle" x="239.5" y="-207.95" font-family="Times,serif" font-size="14.00" fill="#ff4500">Waste Heat</text>
</g>
<!-- mining&#45;&gt;revenue -->
<g id="edge10" class="edge">
<title>mining&#45;&gt;revenue</title>
<path fill="none" stroke="black" stroke-dasharray="5,2" d="M170.63,-238.39C157.06,-225.01 141.54,-209.7 127.23,-195.58"/>
<polygon fill="black" stroke="black" points="130.07,-193.47 120.5,-188.94 125.16,-198.46 130.07,-193.47"/>
</g>
<!-- hotwater -->
<g id="node7" class="node">
<title>hotwater</title>
<polygon fill="#ffe4e1" stroke="black" points="146.38,-52 81.62,-52 81.62,-16 146.38,-16 146.38,-52"/>
<text xml:space="preserve" text-anchor="middle" x="114" y="-30.3" font-family="Arial" font-size="11.00">Hot Water</text>
</g>
<!-- heat&#45;&gt;hotwater -->
<g id="edge6" class="edge">
<title>heat&#45;&gt;hotwater</title>
<path fill="none" stroke="black" stroke-width="1.5" d="M177.22,-110.33C163.78,-94.31 148.32,-75.9 136.06,-61.28"/>
<polygon fill="black" stroke="black" stroke-width="1.5" points="139.08,-59.44 129.97,-54.03 133.72,-63.94 139.08,-59.44"/>
</g>
<!-- heating -->
<g id="node8" class="node">
<title>heating</title>
<polygon fill="#ffe4e1" stroke="black" points="251.62,-52 164.38,-52 164.38,-16 251.62,-16 251.62,-52"/>
<text xml:space="preserve" text-anchor="middle" x="208" y="-37.05" font-family="Arial" font-size="11.00">Space Heating</text>
<text xml:space="preserve" text-anchor="middle" x="208" y="-23.55" font-family="Arial" font-size="11.00">Radiant Floors</text>
</g>
<!-- heat&#45;&gt;heating -->
<g id="edge7" class="edge">
<title>heat&#45;&gt;heating</title>
<path fill="none" stroke="black" stroke-width="1.5" d="M208,-110.33C208,-95.38 208,-78.34 208,-64.25"/>
<polygon fill="black" stroke="black" stroke-width="1.5" points="211.5,-64.56 208,-54.56 204.5,-64.56 211.5,-64.56"/>
</g>
<!-- hottub -->
<g id="node9" class="node">
<title>hottub</title>
<polygon fill="#ffe4e1" stroke="black" points="346.38,-52 269.62,-52 269.62,-16 346.38,-16 346.38,-52"/>
<text xml:space="preserve" text-anchor="middle" x="308" y="-37.05" font-family="Arial" font-size="11.00">Hot Tub/Spa</text>
<text xml:space="preserve" text-anchor="middle" x="308" y="-23.55" font-family="Arial" font-size="11.00">Year&#45;round</text>
</g>
<!-- heat&#45;&gt;hottub -->
<g id="edge8" class="edge">
<title>heat&#45;&gt;hottub</title>
<path fill="none" stroke="black" stroke-width="1.5" d="M240.74,-110.33C255.04,-94.31 271.49,-75.9 284.54,-61.28"/>
<polygon fill="black" stroke="black" stroke-width="1.5" points="287,-63.77 291.05,-53.98 281.78,-59.11 287,-63.77"/>
</g>
<!-- badge -->
<g id="node11" class="node">
<title>badge</title>
<path fill="#4a7c59" stroke="black" stroke-width="3" d="M409.25,-519.5C409.25,-519.5 316.75,-519.5 316.75,-519.5 310.75,-519.5 304.75,-513.5 304.75,-507.5 304.75,-507.5 304.75,-495.5 304.75,-495.5 304.75,-489.5 310.75,-483.5 316.75,-483.5 316.75,-483.5 409.25,-483.5 409.25,-483.5 415.25,-483.5 421.25,-489.5 421.25,-495.5 421.25,-495.5 421.25,-507.5 421.25,-507.5 421.25,-513.5 415.25,-519.5 409.25,-519.5"/>
<text xml:space="preserve" text-anchor="middle" x="363" y="-504.55" font-family="Arial" font-size="11.00" fill="white">100% RENEWABLE</text>
<text xml:space="preserve" text-anchor="middle" x="363" y="-491.05" font-family="Arial" font-size="11.00" fill="white">ZERO WASTE</text>
</g>
</g>
</svg>
