<?xml version="1.0" encoding="UTF-8" standalone="no"?>
<!DOCTYPE svg PUBLIC "-//W3C//DTD SVG 1.1//EN"
 "http://www.w3.org/Graphics/SVG/1.1/DTD/svg11.dtd">
<!-- Generated by graphviz version 14.0.0 (20250921.2048)
 -->
<!-- Title: EnergyFlow Pages: 1 -->
<svg width="472pt" height="367pt"
 viewBox="0.00 0.00 472.00 367.00" xmlns="http://www.w3.org/2000/svg" xmlns:xlink="http://www.w3.org/1999/xlink">
<g id="graph0" class="graph" transform="scale(1 1) rotate(0) translate(4 362.5)">
<title>EnergyFlow</title>
<text xml:space="preserve" text-anchor="start" x="112.62" y="-340.3" font-family="Arial" font-weight="bold" font-size="16.00">Integrated Energy System Flow</text>
<text xml:space="preserve" text-anchor="start" x="8" y="-324.3" font-family="Arial" font-size="16.00">Solar + Hydro + Geothermal → Retreat + Bitcoin + Heat Reuse</text>
<!-- solar -->
<g id="node1" class="node">
<title>solar</title>
<ellipse fill="#ffd700" stroke="#ff8c00" stroke-width="3" cx="396.12" cy="-300.5" rx="39.65" ry="18"/>
<text xml:space="preserve" text-anchor="middle" x="396.12" y="-295.65" font-family="Arial" font-size="13.00">SOLAR</text>
</g>
<!-- retreat -->
<g id="node4" class="node">
<title>retreat</title>
<polygon fill="#e8f4f8" stroke="#4682b4" stroke-width="2" points="309.12,-196.5 197.12,-196.5 197.12,-141.25 309.12,-141.25 309.12,-196.5"/>
<text xml:space="preserve" text-anchor="middle" x="253.12" y="-183" font-family="Arial" font-size="10.00">RETREAT</text>
<text xml:space="preserve" text-anchor="middle" x="253.12" y="-171" font-family="Arial" font-size="10.00">━━━━━</text>
<text xml:space="preserve" text-anchor="middle" x="253.12" y="-159.75" font-family="Arial" font-size="10.00">Lights, Appliances</text>
<text xml:space="preserve" text-anchor="middle" x="253.12" y="-147.75" font-family="Arial" font-size="10.00">HVAC, Water Heating</text>
</g>
<!-- solar&#45;&gt;retreat -->
<g id="edge1" class="edge">
<title>solar&#45;&gt;retreat</title>
<path fill="none" stroke="#ffd700" stroke-width="2" d="M378,-283.08C356.76,-263.83 320.91,-231.33 293.05,-206.07"/>
<polygon fill="#ffd700" stroke="#ffd700" stroke-width="2" points="295.57,-203.64 285.81,-199.51 290.87,-208.82 295.57,-203.64"/>
</g>
<!-- mining -->
<g id="node5" class="node">
<title>mining</title>
<polygon fill="#fff9e6" stroke="#f7931a" stroke-width="2" points="138.62,-196.5 41.62,-196.5 41.62,-141.25 138.62,-141.25 138.62,-196.5"/>
<text xml:space="preserve" text-anchor="middle" x="90.12" y="-183" font-family="Arial" font-size="10.00">BITCOIN MINING</text>
<text xml:space="preserve" text-anchor="middle" x="90.12" y="-171" font-family="Arial" font-size="10.00">━━━━━</text>
<text xml:space="preserve" text-anchor="middle" x="90.12" y="-159.75" font-family="Arial" font-size="10.00">ASIC Miners</text>
<text xml:space="preserve" text-anchor="middle" x="90.12" y="-147.75" font-family="Arial" font-size="10.00">Immersion Cooled</text>
</g>
<!-- solar&#45;&gt;mining -->
<g id="edge2" class="edge">
<title>solar&#45;&gt;mining</title>
<path fill="none" stroke="#ffd700" stroke-width="2" d="M366.78,-287.07C317.35,-266.13 216.49,-223.41 151.17,-195.74"/>
<polygon fill="#ffd700" stroke="#ffd700" stroke-width="2" points="152.77,-192.61 142.19,-191.94 150.03,-199.06 152.77,-192.61"/>
</g>
<!-- battery -->
<g id="node6" class="node">
<title>battery</title>
<polygon fill="#e8f8e8" stroke="#228b22" stroke-width="2" points="446.99,-196.5 367.24,-196.5 367.24,-141.25 446.99,-141.25 446.99,-196.5"/>
<text xml:space="preserve" text-anchor="middle" x="407.12" y="-183" font-family="Arial" font-size="10.00">STORAGE</text>
<text xml:space="preserve" text-anchor="middle" x="407.12" y="-171" font-family="Arial" font-size="10.00">━━━━━</text>
<text xml:space="preserve" text-anchor="middle" x="407.12" y="-159.75" font-family="Arial" font-size="10.00">Nighttime Use</text>
<text xml:space="preserve" text-anchor="middle" x="407.12" y="-147.75" font-family="Arial" font-size="10.00">Backup Power</text>
</g>
<!-- solar&#45;&gt;battery -->
<g id="edge3" class="edge">
<title>solar&#45;&gt;battery</title>
<path fill="none" stroke="#ffd700" stroke-width="2" d="M397.67,-281.2C399.23,-262.8 401.69,-233.82 403.71,-210.04"/>
<polygon fill="#ffd700" stroke="#ffd700" stroke-width="2" points="407.19,-210.39 404.55,-200.13 400.22,-209.8 407.19,-210.39"/>
</g>
<!-- hydro -->
<g id="node2" class="node">
<title>hydro</title>
<ellipse fill="#4682b4" stroke="#1e90ff" stroke-width="3" cx="257.12" cy="-300.5" rx="41.6" ry="18"/>
<text xml:space="preserve" text-anchor="middle" x="257.12" y="-295.65" font-family="Arial" font-size="13.00" fill="white">HYDRO</text>
</g>
<!-- hydro&#45;&gt;retreat -->
<g id="edge4" class="edge">
<title>hydro&#45;&gt;retreat</title>
<path fill="none" stroke="#4682b4" stroke-width="2" d="M256.55,-281.2C255.98,-262.8 255.09,-233.82 254.36,-210.04"/>
<polygon fill="#4682b4" stroke="#4682b4" stroke-width="2" points="257.86,-210.03 254.05,-200.14 250.86,-210.24 257.86,-210.03"/>
</g>
<!-- hydro&#45;&gt;mining -->
<g id="edge5" class="edge">
<title>hydro&#45;&gt;mining</title>
<path fill="none" stroke="#4682b4" stroke-width="2" d="M236.64,-283.61C211.62,-264.18 168.54,-230.75 135.56,-205.15"/>
<polygon fill="#4682b4" stroke="#4682b4" stroke-width="2" points="138.11,-202.7 128.06,-199.33 133.82,-208.23 138.11,-202.7"/>
</g>
<!-- hydro&#45;&gt;battery -->
<g id="edge6" class="edge">
<title>hydro&#45;&gt;battery</title>
<path fill="none" stroke="#4682b4" stroke-width="2" d="M276.11,-283.08C298.49,-263.74 336.33,-231.04 365.61,-205.74"/>
<polygon fill="#4682b4" stroke="#4682b4" stroke-width="2" points="367.6,-208.65 372.88,-199.46 363.03,-203.35 367.6,-208.65"/>
</g>
<!-- geo -->
<g id="node3" class="node">
<title>geo</title>
<ellipse fill="#228b22" stroke="#32cd32" stroke-width="3" cx="87.12" cy="-300.5" rx="70.36" ry="18"/>
<text xml:space="preserve" text-anchor="middle" x="87.12" y="-295.65" font-family="Arial" font-size="13.00" fill="white">GEOTHERMAL</text>
</g>
<!-- geo&#45;&gt;retreat -->
<g id="edge7" class="edge">
<title>geo&#45;&gt;retreat</title>
<path fill="none" stroke="#228b22" stroke-width="2" d="M109.5,-282.02C134.58,-262.44 175.88,-230.19 207.77,-205.28"/>
<polygon fill="#228b22" stroke="#228b22" stroke-width="2" points="209.65,-208.26 215.38,-199.34 205.34,-202.74 209.65,-208.26"/>
</g>
<!-- geo&#45;&gt;mining -->
<g id="edge8" class="edge">
<title>geo&#45;&gt;mining</title>
<path fill="none" stroke="#228b22" stroke-width="2" d="M87.54,-281.2C87.97,-262.8 88.64,-233.82 89.19,-210.04"/>
<polygon fill="#228b22" stroke="#228b22" stroke-width="2" points="92.68,-210.22 89.42,-200.14 85.68,-210.06 92.68,-210.22"/>
</g>
<!-- revenue -->
<g id="node8" class="node">
<title>revenue</title>
<path fill="#90ee90" stroke="#228b22" stroke-width="3" d="M302.37,-51.88C302.37,-51.88 203.87,-51.88 203.87,-51.88 197.87,-51.88 191.87,-45.88 191.87,-39.88 191.87,-39.88 191.87,-15.38 191.87,-15.38 191.87,-9.38 197.87,-3.38 203.87,-3.38 203.87,-3.38 302.37,-3.38 302.37,-3.38 308.37,-3.38 314.37,-9.38 314.37,-15.38 314.37,-15.38 314.37,-39.88 314.37,-39.88 314.37,-45.88 308.37,-51.88 302.37,-51.88"/>
<text xml:space="preserve" text-anchor="middle" x="253.12" y="-37.42" font-family="Arial" font-size="11.00">GUEST BOOKINGS</text>
<text xml:space="preserve" text-anchor="middle" x="253.12" y="-23.93" font-family="Arial" font-size="11.00">+</text>
<text xml:space="preserve" text-anchor="middle" x="253.12" y="-10.43" font-family="Arial" font-size="11.00">BITCOIN EARNINGS</text>
</g>
<!-- retreat&#45;&gt;revenue -->
<g id="edge10" class="edge">
<title>retreat&#45;&gt;revenue</title>
<path fill="none" stroke="black" stroke-width="1.5" stroke-dasharray="5,2" d="M253.12,-140.36C253.12,-118.86 253.12,-88.78 253.12,-65.25"/>
<polygon fill="black" stroke="black" stroke-width="1.5" points="256.62,-65.55 253.12,-55.55 249.62,-65.55 256.62,-65.55"/>
</g>
<!-- heat -->
<g id="node7" class="node">
<title>heat</title>
<polygon fill="#ffe4b5" stroke="#ff4500" stroke-width="2" points="133.74,-55.25 28.49,-55.25 28.49,0 133.74,0 133.74,-55.25"/>
<text xml:space="preserve" text-anchor="middle" x="81.12" y="-41.75" font-family="Arial" font-size="10.00">HEAT REUSE</text>
<text xml:space="preserve" text-anchor="middle" x="81.12" y="-29.75" font-family="Arial" font-size="10.00">━━━━━</text>
<text xml:space="preserve" text-anchor="middle" x="81.12" y="-18.5" font-family="Arial" font-size="10.00">Waste Heat Capture</text>
<text xml:space="preserve" text-anchor="middle" x="81.12" y="-6.5" font-family="Arial" font-size="10.00">From Mining</text>
</g>
<!-- mining&#45;&gt;heat -->
<g id="edge9" class="edge">
<title>mining&#45;&gt;heat</title>
<path fill="none" stroke="#ff4500" stroke-width="3" d="M88.34,-140.36C87.05,-120.43 85.28,-93.13 83.82,-70.5"/>
<polygon fill="#ff4500" stroke="#ff4500" stroke-width="3" points="87.32,-70.36 83.18,-60.61 80.34,-70.82 87.32,-70.36"/>
</g>
<!-- mining&#45;&gt;revenue -->
<g id="edge11" class="edge">
<title>mining&#45;&gt;revenue</title>
<path fill="none" stroke="black" stroke-width="1.5" stroke-dasharray="5,2" d="M122.32,-140.36C148.99,-117.58 186.95,-85.15 215.11,-61.09"/>
<polygon fill="black" stroke="black" stroke-width="1.5" points="217.2,-63.91 222.53,-54.75 212.65,-58.59 217.2,-63.91"/>
</g>
</g>
</svg>
