<?xml version="1.0" encoding="UTF-8" standalone="no"?>
<!DOCTYPE svg PUBLIC "-//W3C//DTD SVG 1.1//EN"
 "http://www.w3.org/Graphics/SVG/1.1/DTD/svg11.dtd">
<!-- Generated by graphviz version 14.0.0 (20250921.2048)
 -->
<!-- Title: PermittingProcess Pages: 1 -->
<svg width="388pt" height="1083pt"
 viewBox="0.00 0.00 388.00 1083.00" xmlns="http://www.w3.org/2000/svg" xmlns:xlink="http://www.w3.org/1999/xlink">
<g id="graph0" class="graph" transform="scale(1 1) rotate(0) translate(4 1079.22)">
<title>PermittingProcess</title>
<text xml:space="preserve" text-anchor="start" x="77" y="-1057.02" font-family="Arial" font-weight="bold" font-size="16.00">Permitting Process Flowchart</text>
<text xml:space="preserve" text-anchor="start" x="8" y="-1041.02" font-family="Arial" font-size="16.00">Offgrid Farmstays &#45; Typical Timeline: 12&#45;18 Weeks</text>
<!-- start -->
<g id="node1" class="node">
<title>start</title>
<ellipse fill="#4a7c59" stroke="#4a7c59" stroke-width="2" cx="143.25" cy="-1007.29" rx="102" ry="27.93"/>
<text xml:space="preserve" text-anchor="middle" x="143.25" y="-1009.74" font-family="Arial" font-size="14.00" fill="white">Start:</text>
<text xml:space="preserve" text-anchor="middle" x="143.25" y="-993.99" font-family="Arial" font-size="14.00" fill="white">Property Assessment</text>
</g>
<!-- preapp -->
<g id="node3" class="node">
<title>preapp</title>
<polygon fill="#e8f4f8" stroke="#4a7c59" stroke-width="2" points="281.5,-931.36 183,-931.36 183,-866.61 281.5,-866.61 281.5,-931.36"/>
<text xml:space="preserve" text-anchor="middle" x="232.25" y="-915.96" font-family="Arial" font-size="12.00">Pre&#45;Application</text>
<text xml:space="preserve" text-anchor="middle" x="232.25" y="-901.71" font-family="Arial" font-size="12.00">Meeting</text>
<text xml:space="preserve" text-anchor="middle" x="232.25" y="-873.46" font-family="Arial" font-size="12.00">Week 1</text>
</g>
<!-- start&#45;&gt;preapp -->
<g id="edge1" class="edge">
<title>start&#45;&gt;preapp</title>
<path fill="none" stroke="black" d="M165.94,-979.19C175.65,-967.6 187.19,-953.8 197.91,-941"/>
<polygon fill="black" stroke="black" points="200.46,-943.41 204.19,-933.5 195.09,-938.92 200.46,-943.41"/>
<text xml:space="preserve" text-anchor="middle" x="206.92" y="-951.86" font-family="Arial" font-size="10.00">Week 1</text>
</g>
<!-- end -->
<g id="node2" class="node">
<title>end</title>
<ellipse fill="#4a7c59" stroke="#4a7c59" stroke-width="2" cx="99.25" cy="-27.93" rx="64.88" ry="27.93"/>
<text xml:space="preserve" text-anchor="middle" x="99.25" y="-30.38" font-family="Arial" font-size="14.00" fill="white">Construction</text>
<text xml:space="preserve" text-anchor="middle" x="99.25" y="-14.63" font-family="Arial" font-size="14.00" fill="white">Can Begin!</text>
</g>
<!-- zoning -->
<g id="node11" class="node">
<title>zoning</title>
<polygon fill="#fff9e6" stroke="#f7931a" stroke-width="2" points="232.25,-829.61 154.75,-793.11 232.25,-756.61 309.75,-793.11 232.25,-829.61"/>
<text xml:space="preserve" text-anchor="middle" x="232.25" y="-795.96" font-family="Arial" font-size="12.00">Zoning</text>
<text xml:space="preserve" text-anchor="middle" x="232.25" y="-781.71" font-family="Arial" font-size="12.00">Compliant?</text>
</g>
<!-- preapp&#45;&gt;zoning -->
<g id="edge2" class="edge">
<title>preapp&#45;&gt;zoning</title>
<path fill="none" stroke="black" d="M232.25,-865.69C232.25,-858.08 232.25,-849.81 232.25,-841.68"/>
<polygon fill="black" stroke="black" points="235.75,-841.89 232.25,-831.89 228.75,-841.89 235.75,-841.89"/>
</g>
<!-- building -->
<g id="node4" class="node">
<title>building</title>
<polygon fill="#e8f4f8" stroke="#4a7c59" stroke-width="2" points="289,-595.86 175.5,-595.86 175.5,-531.11 289,-531.11 289,-595.86"/>
<text xml:space="preserve" text-anchor="middle" x="232.25" y="-580.46" font-family="Arial" font-size="12.00">Submit Building</text>
<text xml:space="preserve" text-anchor="middle" x="232.25" y="-566.21" font-family="Arial" font-size="12.00">Permit Application</text>
<text xml:space="preserve" text-anchor="middle" x="232.25" y="-537.96" font-family="Arial" font-size="12.00">Week 4&#45;8</text>
</g>
<!-- review -->
<g id="node5" class="node">
<title>review</title>
<polygon fill="#e8f4f8" stroke="#4a7c59" stroke-width="2" points="274.38,-494.11 190.12,-494.11 190.12,-429.36 274.38,-429.36 274.38,-494.11"/>
<text xml:space="preserve" text-anchor="middle" x="232.25" y="-478.71" font-family="Arial" font-size="12.00">Engineering</text>
<text xml:space="preserve" text-anchor="middle" x="232.25" y="-464.46" font-family="Arial" font-size="12.00">Plan Review</text>
<text xml:space="preserve" text-anchor="middle" x="232.25" y="-436.21" font-family="Arial" font-size="12.00">Week 8&#45;12</text>
</g>
<!-- building&#45;&gt;review -->
<g id="edge6" class="edge">
<title>building&#45;&gt;review</title>
<path fill="none" stroke="black" d="M232.25,-530.38C232.25,-522.63 232.25,-514.23 232.25,-506.07"/>
<polygon fill="black" stroke="black" points="235.75,-506.3 232.25,-496.3 228.75,-506.3 235.75,-506.3"/>
</g>
<!-- approved -->
<g id="node12" class="node">
<title>approved</title>
<polygon fill="#fff9e6" stroke="#f7931a" stroke-width="2" points="169.25,-392.36 94.75,-355.86 169.25,-319.36 243.75,-355.86 169.25,-392.36"/>
<text xml:space="preserve" text-anchor="middle" x="169.25" y="-358.71" font-family="Arial" font-size="12.00">Plans</text>
<text xml:space="preserve" text-anchor="middle" x="169.25" y="-344.46" font-family="Arial" font-size="12.00">Approved?</text>
</g>
<!-- review&#45;&gt;approved -->
<g id="edge7" class="edge">
<title>review&#45;&gt;approved</title>
<path fill="none" stroke="black" d="M212.66,-428.44C206.19,-417.77 198.93,-405.8 192.23,-394.75"/>
<polygon fill="black" stroke="black" points="195.23,-392.96 187.06,-386.22 189.25,-396.59 195.23,-392.96"/>
</g>
<!-- septic -->
<g id="node6" class="node">
<title>septic</title>
<polygon fill="#e8f4f8" stroke="#4a7c59" stroke-width="2" points="93.5,-259.36 1,-259.36 1,-194.61 93.5,-194.61 93.5,-259.36"/>
<text xml:space="preserve" text-anchor="middle" x="47.25" y="-243.96" font-family="Arial" font-size="12.00">Septic System</text>
<text xml:space="preserve" text-anchor="middle" x="47.25" y="-229.71" font-family="Arial" font-size="12.00">Approval</text>
<text xml:space="preserve" text-anchor="middle" x="47.25" y="-201.46" font-family="Arial" font-size="12.00">Week 8&#45;12</text>
</g>
<!-- final -->
<g id="node8" class="node">
<title>final</title>
<polygon fill="#90ee90" stroke="#4a7c59" stroke-width="3" points="139.5,-157.61 59,-157.61 59,-92.86 139.5,-92.86 139.5,-157.61"/>
<text xml:space="preserve" text-anchor="middle" x="99.25" y="-142.21" font-family="Arial" font-size="12.00">Final Permit</text>
<text xml:space="preserve" text-anchor="middle" x="99.25" y="-127.96" font-family="Arial" font-size="12.00">Approval</text>
<text xml:space="preserve" text-anchor="middle" x="99.25" y="-99.71" font-family="Arial" font-size="12.00">Week 12&#45;18</text>
</g>
<!-- septic&#45;&gt;final -->
<g id="edge12" class="edge">
<title>septic&#45;&gt;final</title>
<path fill="none" stroke="black" d="M63.99,-193.88C68.13,-185.94 72.62,-177.31 76.98,-168.96"/>
<polygon fill="black" stroke="black" points="79.97,-170.8 81.49,-160.31 73.76,-167.56 79.97,-170.8"/>
</g>
<!-- electrical -->
<g id="node7" class="node">
<title>electrical</title>
<polygon fill="#e8f4f8" stroke="#4a7c59" stroke-width="2" points="192.5,-259.36 112,-259.36 112,-194.61 192.5,-194.61 192.5,-259.36"/>
<text xml:space="preserve" text-anchor="middle" x="152.25" y="-243.96" font-family="Arial" font-size="12.00">Electrical</text>
<text xml:space="preserve" text-anchor="middle" x="152.25" y="-229.71" font-family="Arial" font-size="12.00">Permit</text>
<text xml:space="preserve" text-anchor="middle" x="152.25" y="-201.46" font-family="Arial" font-size="12.00">Week 10&#45;14</text>
</g>
<!-- electrical&#45;&gt;final -->
<g id="edge13" class="edge">
<title>electrical&#45;&gt;final</title>
<path fill="none" stroke="black" d="M135.19,-193.88C130.97,-185.94 126.39,-177.31 121.95,-168.96"/>
<polygon fill="black" stroke="black" points="125.14,-167.5 117.35,-160.31 118.95,-170.78 125.14,-167.5"/>
</g>
<!-- final&#45;&gt;end -->
<g id="edge14" class="edge">
<title>final&#45;&gt;end</title>
<path fill="none" stroke="black" d="M99.25,-91.44C99.25,-83.93 99.25,-75.87 99.25,-68.13"/>
<polygon fill="black" stroke="black" points="102.75,-68.23 99.25,-58.23 95.75,-68.23 102.75,-68.23"/>
</g>
<!-- variance -->
<g id="node9" class="node">
<title>variance</title>
<polygon fill="#ffe4b5" stroke="#4a7c59" stroke-width="2" points="357.75,-708.61 254.75,-708.61 254.75,-643.86 357.75,-643.86 357.75,-708.61"/>
<text xml:space="preserve" text-anchor="middle" x="306.25" y="-693.21" font-family="Arial" font-size="12.00">Apply for</text>
<text xml:space="preserve" text-anchor="middle" x="306.25" y="-678.96" font-family="Arial" font-size="12.00">Zoning Variance</text>
<text xml:space="preserve" text-anchor="middle" x="306.25" y="-650.71" font-family="Arial" font-size="12.00">Week 2&#45;8</text>
</g>
<!-- variance&#45;&gt;building -->
<g id="edge5" class="edge">
<title>variance&#45;&gt;building</title>
<path fill="none" stroke="black" d="M284.65,-642.91C276.97,-631.42 268.22,-618.32 260.1,-606.17"/>
<polygon fill="black" stroke="black" points="263.06,-604.3 254.59,-597.92 257.24,-608.18 263.06,-604.3"/>
<text xml:space="preserve" text-anchor="middle" x="292.09" y="-616.36" font-family="Arial" font-size="10.00">Approved</text>
</g>
<!-- revise -->
<g id="node10" class="node">
<title>revise</title>
<polygon fill="#ffe4b5" stroke="#4a7c59" stroke-width="2" points="310.88,-259.36 229.62,-259.36 229.62,-194.61 310.88,-194.61 310.88,-259.36"/>
<text xml:space="preserve" text-anchor="middle" x="270.25" y="-243.96" font-family="Arial" font-size="12.00">Submit Plan</text>
<text xml:space="preserve" text-anchor="middle" x="270.25" y="-229.71" font-family="Arial" font-size="12.00">Revisions</text>
<text xml:space="preserve" text-anchor="middle" x="270.25" y="-201.46" font-family="Arial" font-size="12.00">Week 10&#45;14</text>
</g>
<!-- revise&#45;&gt;review -->
<g id="edge9" class="edge">
<title>revise&#45;&gt;review</title>
<path fill="none" stroke="black" d="M279.24,-260.13C281.74,-272.96 283.28,-287.86 281.25,-301.36 275.17,-341.82 260.87,-386.18 249.28,-417.81"/>
<polygon fill="black" stroke="black" points="246.06,-416.43 245.84,-427.02 252.61,-418.87 246.06,-416.43"/>
</g>
<!-- zoning&#45;&gt;building -->
<g id="edge4" class="edge">
<title>zoning&#45;&gt;building</title>
<path fill="none" stroke="green" d="M228.58,-757.62C227.16,-742.59 225.7,-724.75 225,-708.61 223.75,-679.86 223.69,-672.61 225,-643.86 225.53,-632.15 226.51,-619.49 227.57,-607.8"/>
<polygon fill="green" stroke="green" points="231.04,-608.29 228.51,-598 224.07,-607.62 231.04,-608.29"/>
<text xml:space="preserve" text-anchor="middle" x="235.12" y="-672.74" font-family="Arial" font-size="10.00" fill="green">YES</text>
</g>
<!-- zoning&#45;&gt;variance -->
<g id="edge3" class="edge">
<title>zoning&#45;&gt;variance</title>
<path fill="none" stroke="red" d="M250.16,-764.3C258.94,-750.69 269.68,-734.01 279.41,-718.91"/>
<polygon fill="red" stroke="red" points="282.33,-720.83 284.8,-710.53 276.44,-717.04 282.33,-720.83"/>
<text xml:space="preserve" text-anchor="middle" x="281.18" y="-729.11" font-family="Arial" font-size="10.00" fill="red">NO</text>
</g>
<!-- approved&#45;&gt;septic -->
<g id="edge10" class="edge">
<title>approved&#45;&gt;septic</title>
<path fill="none" stroke="green" d="M131.59,-337.11C115.44,-328.11 97.27,-315.98 84,-301.36 75.87,-292.41 69.09,-281.33 63.66,-270.51"/>
<polygon fill="green" stroke="green" points="66.93,-269.24 59.51,-261.67 60.59,-272.21 66.93,-269.24"/>
<text xml:space="preserve" text-anchor="middle" x="112.12" y="-285.86" font-family="Arial" font-size="10.00" fill="green">APPROVED</text>
</g>
<!-- approved&#45;&gt;electrical -->
<g id="edge11" class="edge">
<title>approved&#45;&gt;electrical</title>
<path fill="none" stroke="green" d="M154.09,-325.86C150.76,-318.11 147.71,-309.59 146,-301.36 144,-291.73 143.76,-281.27 144.41,-271.34"/>
<polygon fill="green" stroke="green" points="147.89,-271.81 145.38,-261.52 140.92,-271.12 147.89,-271.81"/>
<text xml:space="preserve" text-anchor="middle" x="174.12" y="-285.86" font-family="Arial" font-size="10.00" fill="green">APPROVED</text>
</g>
<!-- approved&#45;&gt;revise -->
<g id="edge8" class="edge">
<title>approved&#45;&gt;revise</title>
<path fill="none" stroke="orange" d="M187.93,-327.81C198.64,-312.68 212.53,-293.65 225.75,-277.36 228.04,-274.54 230.44,-271.66 232.89,-268.79"/>
<polygon fill="orange" stroke="orange" points="235.41,-271.22 239.33,-261.38 230.13,-266.63 235.41,-271.22"/>
<text xml:space="preserve" text-anchor="middle" x="253.5" y="-291.86" font-family="Arial" font-size="10.00" fill="orange">REVISIONS</text>
<text xml:space="preserve" text-anchor="middle" x="253.5" y="-279.86" font-family="Arial" font-size="10.00" fill="orange">NEEDED</text>
</g>
<!-- note1 -->
<g id="node13" class="node">
<title>note1</title>
<path fill="#fff9e6" stroke="#f7931a" stroke-width="2" d="M366.75,-1025.29C366.75,-1025.29 275.75,-1025.29 275.75,-1025.29 269.75,-1025.29 263.75,-1019.29 263.75,-1013.29 263.75,-1013.29 263.75,-1001.29 263.75,-1001.29 263.75,-995.29 269.75,-989.29 275.75,-989.29 275.75,-989.29 366.75,-989.29 366.75,-989.29 372.75,-989.29 378.75,-995.29 378.75,-1001.29 378.75,-1001.29 378.75,-1013.29 378.75,-1013.29 378.75,-1019.29 372.75,-1025.29 366.75,-1025.29"/>
<text xml:space="preserve" text-anchor="middle" x="321.25" y="-1010.34" font-family="Arial" font-size="11.00">WE HANDLE THIS</text>
<text xml:space="preserve" text-anchor="middle" x="321.25" y="-996.84" font-family="Arial" font-size="11.00">ENTIRE PROCESS</text>
</g>
<!-- note1&#45;&gt;preapp -->
<g id="edge15" class="edge">
<title>note1&#45;&gt;preapp</title>
<path fill="none" stroke="#f7931a" stroke-dasharray="5,2" d="M306.55,-988.74C295.62,-975.68 280.25,-957.32 266.32,-940.68"/>
<polygon fill="#f7931a" stroke="#f7931a" points="269.28,-938.76 260.17,-933.34 263.91,-943.25 269.28,-938.76"/>
</g>
</g>
</svg>
