<svg xmlns="http://www.w3.org/2000/svg" width="1200" height="600"><text x="600" y="40" text-anchor="middle" font-size="24px" font-weight="bold" fill="#2C2C2C">Dual Revenue Model</text><text x="600" y="65" text-anchor="middle" font-size="14px" fill="#5A5A5A">Two Income Streams, One Property</text><rect x="520" y="240" width="160" height="120" fill="#4A7C59" rx="10" stroke="#2C2C2C" stroke-width="2"></rect><text x="600" y="275" text-anchor="middle" font-size="16px" font-weight="bold" fill="white">Your Retreat</text><text x="600" y="300" text-anchor="middle" font-size="12px" fill="white">Solar Powered</text><text x="600" y="320" text-anchor="middle" font-size="12px" fill="white">Off-Grid</text><rect x="60" y="220" width="240" height="160" fill="#4682B4" rx="10" stroke="#2C2C2C" stroke-width="2"></rect><text x="180" y="255" text-anchor="middle" font-size="18px" font-weight="bold" fill="white">Guest Bookings</text><text x="180" y="280" text-anchor="middle" font-size="24px" font-weight="bold" fill="white">$2,800</text><text x="180" y="300" text-anchor="middle" font-size="12px" fill="white">per month</text><text x="180" y="325" text-anchor="middle" font-size="11px" fill="white">60-75% occupancy</text><text x="180" y="345" text-anchor="middle" font-size="11px" fill="white">via AirBTC</text><path d="M 300 300 L 500 300" stroke="#4682B4" stroke-width="3" fill="none" marker-end="url(#arrowGuest)"></path><defs><marker id="arrowGuest" markerWidth="10" markerHeight="10" refX="9" refY="3" orient="auto"><path d="M0,0 L0,6 L9,3 z" fill="#4682B4"></path></marker></defs><rect x="900" y="220" width="240" height="160" fill="#F7931A" rx="10" stroke="#2C2C2C" stroke-width="2"></rect><text x="1020" y="255" text-anchor="middle" font-size="18px" font-weight="bold" fill="white">Bitcoin Earnings</text><text x="1020" y="280" text-anchor="middle" font-size="24px" font-weight="bold" fill="white">$1,400</text><text x="1020" y="300" text-anchor="middle" font-size="12px" fill="white">per month</text><text x="1020" y="325" text-anchor="middle" font-size="11px" fill="white">24/7 passive</text><text x="1020" y="345" text-anchor="middle" font-size="11px" fill="white">Solar powered</text><path d="M 700 300 L 900 300" stroke="#F7931A" stroke-width="3" fill="none" marker-end="url(#arrowBitcoin)"></path><defs><marker id="arrowBitcoin" markerWidth="10" markerHeight="10" refX="9" refY="3" orient="auto"><path d="M0,0 L0,6 L9,3 z" fill="#F7931A"></path></marker></defs><rect x="420" y="485" width="360" height="70" fill="#90EE90" rx="10" stroke="#228B22" stroke-width="3"></rect><text x="600" y="510" text-anchor="middle" font-size="14px" font-weight="bold">TOTAL MONTHLY REVENUE</text><text x="600" y="540" text-anchor="middle" font-size="28px" font-weight="bold" fill="#228B22">$4,200/month</text><path d="M 180 385 L 180 482 L 500 482" stroke="#4682B4" stroke-width="2" fill="none" stroke-dasharray="5,5"></path><path d="M 1020 385 L 1020 482 L 700 482" stroke="#F7931A" stroke-width="2" fill="none" stroke-dasharray="5,5"></path></svg>