<?xml version="1.0" encoding="UTF-8" standalone="no"?>
<!DOCTYPE svg PUBLIC "-//W3C//DTD SVG 1.1//EN"
 "http://www.w3.org/Graphics/SVG/1.1/DTD/svg11.dtd">
<!-- Generated by graphviz version 14.0.0 (20250921.2048)
 -->
<!-- Title: EnergyFlow Pages: 1 -->
<svg width="1115pt" height="532pt"
 viewBox="0.00 0.00 1115.00 532.00" xmlns="http://www.w3.org/2000/svg" xmlns:xlink="http://www.w3.org/1999/xlink">
<g id="graph0" class="graph" transform="scale(1 1) rotate(0) translate(4 528.25)">
<title>EnergyFlow</title>
<text xml:space="preserve" text-anchor="start" x="434.25" y="-506.05" font-family="Arial" font-weight="bold" font-size="16.00">Integrated Energy System Flow</text>
<text xml:space="preserve" text-anchor="start" x="329.62" y="-490.05" font-family="Arial" font-size="16.00">Solar + Hydro + Geothermal → Retreat + Bitcoin + Heat Reuse</text>
<!-- solar -->
<g id="node1" class="node">
<title>solar</title>
<ellipse fill="#ffd700" stroke="#ff8c00" stroke-width="3" cx="353.62" cy="-396.5" rx="39.65" ry="18"/>
<text xml:space="preserve" text-anchor="middle" x="353.62" y="-391.65" font-family="Arial" font-size="13.00">SOLAR</text>
</g>
<!-- retreat -->
<g id="node5" class="node">
<title>retreat</title>
<polygon fill="#e8f4f8" stroke="#4682b4" stroke-width="2" points="244.62,-292.5 132.62,-292.5 132.62,-256.5 244.62,-256.5 244.62,-292.5"/>
<text xml:space="preserve" text-anchor="middle" x="188.62" y="-277" font-family="Arial" font-size="10.00">Lights, Appliances</text>
<text xml:space="preserve" text-anchor="middle" x="188.62" y="-265" font-family="Arial" font-size="10.00">HVAC, Water Heating</text>
</g>
<!-- solar&#45;&gt;retreat -->
<g id="edge1" class="edge">
<title>solar&#45;&gt;retreat</title>
<path fill="none" stroke="#ffd700" stroke-width="2" d="M332.39,-380.06C304.82,-360.01 256.35,-324.75 223.38,-300.78"/>
<polygon fill="#ffd700" stroke="#ffd700" stroke-width="2" points="225.86,-298.25 215.72,-295.2 221.75,-303.92 225.86,-298.25"/>
</g>
<!-- mining -->
<g id="node6" class="node">
<title>mining</title>
<polygon fill="#fff9e6" stroke="#f7931a" stroke-width="2" points="401.38,-292.5 305.88,-292.5 305.88,-256.5 401.38,-256.5 401.38,-292.5"/>
<text xml:space="preserve" text-anchor="middle" x="353.62" y="-277" font-family="Arial" font-size="10.00">ASIC Miners</text>
<text xml:space="preserve" text-anchor="middle" x="353.62" y="-265" font-family="Arial" font-size="10.00">Immersion Cooled</text>
</g>
<!-- solar&#45;&gt;mining -->
<g id="edge2" class="edge">
<title>solar&#45;&gt;mining</title>
<path fill="none" stroke="#ffd700" stroke-width="2" d="M353.62,-377.01C353.62,-358.18 353.62,-328.63 353.62,-306.26"/>
<polygon fill="#ffd700" stroke="#ffd700" stroke-width="2" points="357.13,-306.45 353.63,-296.45 350.13,-306.45 357.13,-306.45"/>
</g>
<!-- battery -->
<g id="node7" class="node">
<title>battery</title>
<polygon fill="#e8f8e8" stroke="#228b22" stroke-width="2" points="539.5,-292.5 459.75,-292.5 459.75,-256.5 539.5,-256.5 539.5,-292.5"/>
<text xml:space="preserve" text-anchor="middle" x="499.62" y="-277" font-family="Arial" font-size="10.00">Nighttime Use</text>
<text xml:space="preserve" text-anchor="middle" x="499.62" y="-265" font-family="Arial" font-size="10.00">Backup Power</text>
</g>
<!-- solar&#45;&gt;battery -->
<g id="edge3" class="edge">
<title>solar&#45;&gt;battery</title>
<path fill="none" stroke="#ffd700" stroke-width="2" d="M373.01,-379.56C397.19,-359.69 438.86,-325.44 467.76,-301.69"/>
<polygon fill="#ffd700" stroke="#ffd700" stroke-width="2" points="469.93,-304.44 475.43,-295.38 465.49,-299.03 469.93,-304.44"/>
</g>
<!-- hydro -->
<g id="node2" class="node">
<title>hydro</title>
<ellipse fill="#4682b4" stroke="#1e90ff" stroke-width="3" cx="492.62" cy="-396.5" rx="41.6" ry="18"/>
<text xml:space="preserve" text-anchor="middle" x="492.62" y="-391.65" font-family="Arial" font-size="13.00" fill="white">HYDRO</text>
</g>
<!-- hydro&#45;&gt;retreat -->
<g id="edge4" class="edge">
<title>hydro&#45;&gt;retreat</title>
<path fill="none" stroke="#4682b4" stroke-width="2" d="M461.52,-383.22C410.91,-363.24 309.98,-323.4 246.06,-298.17"/>
<polygon fill="#4682b4" stroke="#4682b4" stroke-width="2" points="247.59,-295.01 237,-294.6 245.02,-301.52 247.59,-295.01"/>
</g>
<!-- hydro&#45;&gt;mining -->
<g id="edge5" class="edge">
<title>hydro&#45;&gt;mining</title>
<path fill="none" stroke="#4682b4" stroke-width="2" d="M473.59,-379.07C450.51,-359.14 411.34,-325.32 384.05,-301.77"/>
<polygon fill="#4682b4" stroke="#4682b4" stroke-width="2" points="386.39,-299.16 376.53,-295.27 381.81,-304.46 386.39,-299.16"/>
</g>
<!-- hydro&#45;&gt;battery -->
<g id="edge6" class="edge">
<title>hydro&#45;&gt;battery</title>
<path fill="none" stroke="#4682b4" stroke-width="2" d="M493.7,-377.01C494.8,-358.18 496.53,-328.63 497.83,-306.26"/>
<polygon fill="#4682b4" stroke="#4682b4" stroke-width="2" points="501.32,-306.63 498.4,-296.44 494.33,-306.22 501.32,-306.63"/>
</g>
<!-- geo -->
<g id="node3" class="node">
<title>geo</title>
<ellipse fill="#228b22" stroke="#32cd32" stroke-width="3" cx="185.62" cy="-396.5" rx="70.36" ry="18"/>
<text xml:space="preserve" text-anchor="middle" x="185.62" y="-391.65" font-family="Arial" font-size="13.00" fill="white">GEOTHERMAL</text>
</g>
<!-- geo&#45;&gt;retreat -->
<g id="edge7" class="edge">
<title>geo&#45;&gt;retreat</title>
<path fill="none" stroke="#228b22" stroke-width="2" d="M186.09,-377.01C186.56,-358.18 187.3,-328.63 187.86,-306.26"/>
<polygon fill="#228b22" stroke="#228b22" stroke-width="2" points="191.35,-306.53 188.1,-296.45 184.35,-306.36 191.35,-306.53"/>
</g>
<!-- geo&#45;&gt;mining -->
<g id="edge8" class="edge">
<title>geo&#45;&gt;mining</title>
<path fill="none" stroke="#228b22" stroke-width="2" d="M209.7,-378.31C238.06,-358.04 285.46,-324.19 318.06,-300.9"/>
<polygon fill="#228b22" stroke="#228b22" stroke-width="2" points="319.94,-303.86 326.04,-295.2 315.87,-298.17 319.94,-303.86"/>
</g>
<!-- dist_label -->
<g id="node4" class="node">
<title>dist_label</title>
<polygon fill="lightgrey" stroke="none" points="824.62,-414.5 736.62,-414.5 736.62,-378.5 824.62,-378.5 824.62,-414.5"/>
<text xml:space="preserve" text-anchor="middle" x="780.62" y="-399" font-family="Arial" font-size="10.00" fill="#4a7c59">ENERGY</text>
<text xml:space="preserve" text-anchor="middle" x="780.62" y="-387" font-family="Arial" font-size="10.00" fill="#4a7c59">DISTRIBUTION</text>
</g>
<!-- retreat_label -->
<g id="node8" class="node">
<title>retreat_label</title>
<polygon fill="lightgrey" stroke="none" points="57.25,-414.5 0,-414.5 0,-378.5 57.25,-378.5 57.25,-414.5"/>
<text xml:space="preserve" text-anchor="middle" x="28.62" y="-393.2" font-family="Arial" font-size="9.00" fill="#4682b4">RETREAT</text>
</g>
<!-- dist_label&#45;&gt;retreat_label -->
<!-- revenue -->
<g id="node17" class="node">
<title>revenue</title>
<path fill="#90ee90" stroke="#228b22" stroke-width="3" d="M237.88,-170.5C237.88,-170.5 139.38,-170.5 139.38,-170.5 133.38,-170.5 127.38,-164.5 127.38,-158.5 127.38,-158.5 127.38,-134 127.38,-134 127.38,-128 133.38,-122 139.38,-122 139.38,-122 237.88,-122 237.88,-122 243.88,-122 249.88,-128 249.88,-134 249.88,-134 249.88,-158.5 249.88,-158.5 249.88,-164.5 243.88,-170.5 237.88,-170.5"/>
<text xml:space="preserve" text-anchor="middle" x="188.62" y="-156.05" font-family="Arial" font-size="11.00">GUEST BOOKINGS</text>
<text xml:space="preserve" text-anchor="middle" x="188.62" y="-142.55" font-family="Arial" font-size="11.00">+</text>
<text xml:space="preserve" text-anchor="middle" x="188.62" y="-129.05" font-family="Arial" font-size="11.00">BITCOIN EARNINGS</text>
</g>
<!-- retreat&#45;&gt;revenue -->
<g id="edge19" class="edge">
<title>retreat&#45;&gt;revenue</title>
<path fill="none" stroke="black" stroke-width="1.5" stroke-dasharray="5,2" d="M188.62,-255.68C188.62,-237.13 188.62,-207.54 188.62,-183.96"/>
<polygon fill="black" stroke="black" stroke-width="1.5" points="192.13,-184.19 188.63,-174.19 185.13,-184.19 192.13,-184.19"/>
</g>
<!-- heat -->
<g id="node12" class="node">
<title>heat</title>
<polygon fill="#ffe4b5" stroke="#ff4500" stroke-width="2" points="525.25,-164.25 420,-164.25 420,-128.25 525.25,-128.25 525.25,-164.25"/>
<text xml:space="preserve" text-anchor="middle" x="472.62" y="-148.75" font-family="Arial" font-size="10.00">Waste Heat Capture</text>
<text xml:space="preserve" text-anchor="middle" x="472.62" y="-136.75" font-family="Arial" font-size="10.00">From Mining</text>
</g>
<!-- mining&#45;&gt;heat -->
<g id="edge13" class="edge">
<title>mining&#45;&gt;heat</title>
<path fill="none" stroke="#ff4500" stroke-width="3" d="M370.42,-255.68C390.09,-234.81 422.91,-199.99 446.05,-175.45"/>
<polygon fill="#ff4500" stroke="#ff4500" stroke-width="3" points="448.49,-177.96 452.8,-168.28 443.39,-173.16 448.49,-177.96"/>
</g>
<!-- mining&#45;&gt;revenue -->
<g id="edge20" class="edge">
<title>mining&#45;&gt;revenue</title>
<path fill="none" stroke="black" stroke-width="1.5" stroke-dasharray="5,2" d="M330.33,-255.68C304.41,-235.84 262.01,-203.4 230.33,-179.16"/>
<polygon fill="black" stroke="black" stroke-width="1.5" points="232.74,-176.6 222.67,-173.3 228.49,-182.16 232.74,-176.6"/>
</g>
<!-- retreat_label&#45;&gt;retreat -->
<!-- mining_label -->
<g id="node9" class="node">
<title>mining_label</title>
<polygon fill="lightgrey" stroke="none" points="678.88,-414.5 592.38,-414.5 592.38,-378.5 678.88,-378.5 678.88,-414.5"/>
<text xml:space="preserve" text-anchor="middle" x="635.62" y="-393.2" font-family="Arial" font-size="9.00" fill="#f7931a">BITCOIN MINING</text>
</g>
<!-- mining_label&#45;&gt;mining -->
<!-- battery_label -->
<g id="node10" class="node">
<title>battery_label</title>
<polygon fill="lightgrey" stroke="none" points="942.38,-414.5 882.88,-414.5 882.88,-378.5 942.38,-378.5 942.38,-414.5"/>
<text xml:space="preserve" text-anchor="middle" x="912.62" y="-393.2" font-family="Arial" font-size="9.00" fill="#228b22">STORAGE</text>
</g>
<!-- battery_label&#45;&gt;battery -->
<!-- heat_label -->
<g id="node11" class="node">
<title>heat_label</title>
<polygon fill="lightgrey" stroke="none" points="361.62,-164.25 307.62,-164.25 307.62,-128.25 361.62,-128.25 361.62,-164.25"/>
<text xml:space="preserve" text-anchor="middle" x="334.62" y="-148.75" font-family="Arial" font-size="10.00" fill="#ff4500">HEAT</text>
<text xml:space="preserve" text-anchor="middle" x="334.62" y="-136.75" font-family="Arial" font-size="10.00" fill="#ff4500">REUSE</text>
</g>
<!-- heat_label&#45;&gt;heat -->
<!-- hotwater -->
<g id="node14" class="node">
<title>hotwater</title>
<polygon fill="#ffe4e1" stroke="#ff6347" stroke-width="1.5" points="374.75,-36 314.5,-36 314.5,0 374.75,0 374.75,-36"/>
<text xml:space="preserve" text-anchor="middle" x="344.62" y="-14.5" font-family="Arial" font-size="10.00">Hot Water</text>
</g>
<!-- heat&#45;&gt;hotwater -->
<g id="edge15" class="edge">
<title>heat&#45;&gt;hotwater</title>
<path fill="none" stroke="#ff4500" stroke-width="2" d="M454.56,-127.43C432.93,-106.09 396.5,-70.16 371.55,-45.55"/>
<polygon fill="#ff4500" stroke="#ff4500" stroke-width="2" points="374.33,-43.39 364.76,-38.86 369.42,-48.37 374.33,-43.39"/>
</g>
<!-- heating -->
<g id="node15" class="node">
<title>heating</title>
<polygon fill="#ffe4e1" stroke="#ff6347" stroke-width="1.5" points="512.88,-36 432.38,-36 432.38,0 512.88,0 512.88,-36"/>
<text xml:space="preserve" text-anchor="middle" x="472.62" y="-20.5" font-family="Arial" font-size="10.00">Space Heating</text>
<text xml:space="preserve" text-anchor="middle" x="472.62" y="-8.5" font-family="Arial" font-size="10.00">Radiant Floors</text>
</g>
<!-- heat&#45;&gt;heating -->
<g id="edge16" class="edge">
<title>heat&#45;&gt;heating</title>
<path fill="none" stroke="#ff4500" stroke-width="2" d="M472.62,-127.43C472.62,-107.22 472.62,-73.92 472.62,-49.55"/>
<polygon fill="#ff4500" stroke="#ff4500" stroke-width="2" points="476.13,-49.76 472.63,-39.76 469.13,-49.76 476.13,-49.76"/>
</g>
<!-- hottub -->
<g id="node16" class="node">
<title>hottub</title>
<polygon fill="#ffe4e1" stroke="#ff6347" stroke-width="1.5" points="642,-36 571.25,-36 571.25,0 642,0 642,-36"/>
<text xml:space="preserve" text-anchor="middle" x="606.62" y="-20.5" font-family="Arial" font-size="10.00">Hot Tub/Spa</text>
<text xml:space="preserve" text-anchor="middle" x="606.62" y="-8.5" font-family="Arial" font-size="10.00">Year&#45;round</text>
</g>
<!-- heat&#45;&gt;hottub -->
<g id="edge17" class="edge">
<title>heat&#45;&gt;hottub</title>
<path fill="none" stroke="#ff4500" stroke-width="2" d="M491.54,-127.43C514.19,-106.09 552.32,-70.16 578.44,-45.55"/>
<polygon fill="#ff4500" stroke="#ff4500" stroke-width="2" points="580.72,-48.21 585.6,-38.81 575.92,-43.12 580.72,-48.21"/>
</g>
<!-- heat_apps_label -->
<g id="node13" class="node">
<title>heat_apps_label</title>
<polygon fill="lightgrey" stroke="none" points="256,-36 167.25,-36 167.25,0 256,0 256,-36"/>
<text xml:space="preserve" text-anchor="middle" x="211.62" y="-20.5" font-family="Arial" font-size="10.00" fill="#ff4500">HEAT</text>
<text xml:space="preserve" text-anchor="middle" x="211.62" y="-8.5" font-family="Arial" font-size="10.00" fill="#ff4500">APPLICATIONS</text>
</g>
<!-- heat_apps_label&#45;&gt;hotwater -->
<!-- badge -->
<g id="node18" class="node">
<title>badge</title>
<path fill="#4a7c59" stroke="black" stroke-width="2" d="M1095,-414.5C1095,-414.5 1012.25,-414.5 1012.25,-414.5 1006.25,-414.5 1000.25,-408.5 1000.25,-402.5 1000.25,-402.5 1000.25,-390.5 1000.25,-390.5 1000.25,-384.5 1006.25,-378.5 1012.25,-378.5 1012.25,-378.5 1095,-378.5 1095,-378.5 1101,-378.5 1107,-384.5 1107,-390.5 1107,-390.5 1107,-402.5 1107,-402.5 1107,-408.5 1101,-414.5 1095,-414.5"/>
<text xml:space="preserve" text-anchor="middle" x="1053.62" y="-399" font-family="Arial" font-size="10.00" fill="white">100% RENEWABLE</text>
<text xml:space="preserve" text-anchor="middle" x="1053.62" y="-387" font-family="Arial" font-size="10.00" fill="white">ZERO WASTE</text>
</g>
</g>
</svg>
