<?xml version="1.0" encoding="UTF-8" standalone="no"?>
<!DOCTYPE svg PUBLIC "-//W3C//DTD SVG 1.1//EN"
 "http://www.w3.org/Graphics/SVG/1.1/DTD/svg11.dtd">
<!-- Generated by graphviz version 14.0.0 (20250921.2048)
 -->
<!-- Title: EnergyFlow Pages: 1 -->
<svg width="532pt" height="489pt"
 viewBox="0.00 0.00 532.00 489.00" xmlns="http://www.w3.org/2000/svg" xmlns:xlink="http://www.w3.org/1999/xlink">
<g id="graph0" class="graph" transform="scale(1 1) rotate(0) translate(4 484.5)">
<title>EnergyFlow</title>
<text xml:space="preserve" text-anchor="start" x="142.75" y="-462.3" font-family="Arial" font-weight="bold" font-size="16.00">Integrated Energy System Flow</text>
<text xml:space="preserve" text-anchor="start" x="38.12" y="-446.3" font-family="Arial" font-size="16.00">Solar + Hydro + Geothermal → Retreat + Bitcoin + Heat Reuse</text>
<!-- solar -->
<g id="node1" class="node">
<title>solar</title>
<ellipse fill="#ffd700" stroke="#ff8c00" stroke-width="3" cx="473.12" cy="-422.5" rx="39.65" ry="18"/>
<text xml:space="preserve" text-anchor="middle" x="473.12" y="-417.65" font-family="Arial" font-size="13.00">SOLAR</text>
</g>
<!-- retreat -->
<g id="node4" class="node">
<title>retreat</title>
<polygon fill="#e8f4f8" stroke="#4682b4" stroke-width="2" points="386.12,-318.5 274.12,-318.5 274.12,-263.25 386.12,-263.25 386.12,-318.5"/>
<text xml:space="preserve" text-anchor="middle" x="330.12" y="-305" font-family="Arial" font-size="10.00">RETREAT</text>
<text xml:space="preserve" text-anchor="middle" x="330.12" y="-293" font-family="Arial" font-size="10.00">━━━━━</text>
<text xml:space="preserve" text-anchor="middle" x="330.12" y="-281.75" font-family="Arial" font-size="10.00">Lights, Appliances</text>
<text xml:space="preserve" text-anchor="middle" x="330.12" y="-269.75" font-family="Arial" font-size="10.00">HVAC, Water Heating</text>
</g>
<!-- solar&#45;&gt;retreat -->
<g id="edge1" class="edge">
<title>solar&#45;&gt;retreat</title>
<path fill="none" stroke="#ffd700" stroke-width="2" d="M455.01,-405.08C433.77,-385.83 397.92,-353.33 370.06,-328.07"/>
<polygon fill="#ffd700" stroke="#ffd700" stroke-width="2" points="372.58,-325.64 362.82,-321.51 367.88,-330.82 372.58,-325.64"/>
</g>
<!-- mining -->
<g id="node5" class="node">
<title>mining</title>
<polygon fill="#fff9e6" stroke="#f7931a" stroke-width="2" points="215.62,-318.5 118.62,-318.5 118.62,-263.25 215.62,-263.25 215.62,-318.5"/>
<text xml:space="preserve" text-anchor="middle" x="167.12" y="-305" font-family="Arial" font-size="10.00">BITCOIN MINING</text>
<text xml:space="preserve" text-anchor="middle" x="167.12" y="-293" font-family="Arial" font-size="10.00">━━━━━</text>
<text xml:space="preserve" text-anchor="middle" x="167.12" y="-281.75" font-family="Arial" font-size="10.00">ASIC Miners</text>
<text xml:space="preserve" text-anchor="middle" x="167.12" y="-269.75" font-family="Arial" font-size="10.00">Immersion Cooled</text>
</g>
<!-- solar&#45;&gt;mining -->
<g id="edge2" class="edge">
<title>solar&#45;&gt;mining</title>
<path fill="none" stroke="#ffd700" stroke-width="2" d="M443.78,-409.07C394.36,-388.13 293.49,-345.41 228.18,-317.74"/>
<polygon fill="#ffd700" stroke="#ffd700" stroke-width="2" points="229.77,-314.61 219.2,-313.94 227.04,-321.06 229.77,-314.61"/>
</g>
<!-- battery -->
<g id="node6" class="node">
<title>battery</title>
<polygon fill="#e8f8e8" stroke="#228b22" stroke-width="2" points="524,-318.5 444.25,-318.5 444.25,-263.25 524,-263.25 524,-318.5"/>
<text xml:space="preserve" text-anchor="middle" x="484.12" y="-305" font-family="Arial" font-size="10.00">STORAGE</text>
<text xml:space="preserve" text-anchor="middle" x="484.12" y="-293" font-family="Arial" font-size="10.00">━━━━━</text>
<text xml:space="preserve" text-anchor="middle" x="484.12" y="-281.75" font-family="Arial" font-size="10.00">Nighttime Use</text>
<text xml:space="preserve" text-anchor="middle" x="484.12" y="-269.75" font-family="Arial" font-size="10.00">Backup Power</text>
</g>
<!-- solar&#45;&gt;battery -->
<g id="edge3" class="edge">
<title>solar&#45;&gt;battery</title>
<path fill="none" stroke="#ffd700" stroke-width="2" d="M474.68,-403.2C476.24,-384.8 478.7,-355.82 480.72,-332.04"/>
<polygon fill="#ffd700" stroke="#ffd700" stroke-width="2" points="484.2,-332.39 481.56,-322.13 477.22,-331.8 484.2,-332.39"/>
</g>
<!-- hydro -->
<g id="node2" class="node">
<title>hydro</title>
<ellipse fill="#4682b4" stroke="#1e90ff" stroke-width="3" cx="334.12" cy="-422.5" rx="41.6" ry="18"/>
<text xml:space="preserve" text-anchor="middle" x="334.12" y="-417.65" font-family="Arial" font-size="13.00" fill="white">HYDRO</text>
</g>
<!-- hydro&#45;&gt;retreat -->
<g id="edge4" class="edge">
<title>hydro&#45;&gt;retreat</title>
<path fill="none" stroke="#4682b4" stroke-width="2" d="M333.56,-403.2C332.99,-384.8 332.1,-355.82 331.36,-332.04"/>
<polygon fill="#4682b4" stroke="#4682b4" stroke-width="2" points="334.87,-332.03 331.06,-322.14 327.87,-332.24 334.87,-332.03"/>
</g>
<!-- hydro&#45;&gt;mining -->
<g id="edge5" class="edge">
<title>hydro&#45;&gt;mining</title>
<path fill="none" stroke="#4682b4" stroke-width="2" d="M313.65,-405.61C288.63,-386.18 245.55,-352.75 212.57,-327.15"/>
<polygon fill="#4682b4" stroke="#4682b4" stroke-width="2" points="215.12,-324.7 205.07,-321.33 210.83,-330.23 215.12,-324.7"/>
</g>
<!-- hydro&#45;&gt;battery -->
<g id="edge6" class="edge">
<title>hydro&#45;&gt;battery</title>
<path fill="none" stroke="#4682b4" stroke-width="2" d="M353.12,-405.08C375.5,-385.74 413.34,-353.04 442.62,-327.74"/>
<polygon fill="#4682b4" stroke="#4682b4" stroke-width="2" points="444.61,-330.65 449.89,-321.46 440.04,-325.35 444.61,-330.65"/>
</g>
<!-- geo -->
<g id="node3" class="node">
<title>geo</title>
<ellipse fill="#228b22" stroke="#32cd32" stroke-width="3" cx="164.12" cy="-422.5" rx="70.36" ry="18"/>
<text xml:space="preserve" text-anchor="middle" x="164.12" y="-417.65" font-family="Arial" font-size="13.00" fill="white">GEOTHERMAL</text>
</g>
<!-- geo&#45;&gt;retreat -->
<g id="edge7" class="edge">
<title>geo&#45;&gt;retreat</title>
<path fill="none" stroke="#228b22" stroke-width="2" d="M186.51,-404.02C211.59,-384.44 252.89,-352.19 284.78,-327.28"/>
<polygon fill="#228b22" stroke="#228b22" stroke-width="2" points="286.66,-330.26 292.39,-321.34 282.35,-324.74 286.66,-330.26"/>
</g>
<!-- geo&#45;&gt;mining -->
<g id="edge8" class="edge">
<title>geo&#45;&gt;mining</title>
<path fill="none" stroke="#228b22" stroke-width="2" d="M164.55,-403.2C164.97,-384.8 165.65,-355.82 166.2,-332.04"/>
<polygon fill="#228b22" stroke="#228b22" stroke-width="2" points="169.69,-332.22 166.42,-322.14 162.69,-332.06 169.69,-332.22"/>
</g>
<!-- revenue -->
<g id="node11" class="node">
<title>revenue</title>
<path fill="#90ee90" stroke="#228b22" stroke-width="3" d="M379.38,-173.88C379.38,-173.88 280.88,-173.88 280.88,-173.88 274.88,-173.88 268.88,-167.88 268.88,-161.88 268.88,-161.88 268.88,-137.38 268.88,-137.38 268.88,-131.38 274.88,-125.38 280.88,-125.38 280.88,-125.38 379.38,-125.38 379.38,-125.38 385.38,-125.38 391.38,-131.38 391.38,-137.38 391.38,-137.38 391.38,-161.88 391.38,-161.88 391.38,-167.88 385.38,-173.88 379.38,-173.88"/>
<text xml:space="preserve" text-anchor="middle" x="330.12" y="-159.43" font-family="Arial" font-size="11.00">GUEST BOOKINGS</text>
<text xml:space="preserve" text-anchor="middle" x="330.12" y="-145.93" font-family="Arial" font-size="11.00">+</text>
<text xml:space="preserve" text-anchor="middle" x="330.12" y="-132.43" font-family="Arial" font-size="11.00">BITCOIN EARNINGS</text>
</g>
<!-- retreat&#45;&gt;revenue -->
<g id="edge13" class="edge">
<title>retreat&#45;&gt;revenue</title>
<path fill="none" stroke="black" stroke-width="1.5" stroke-dasharray="5,2" d="M330.12,-262.36C330.12,-240.86 330.12,-210.78 330.12,-187.25"/>
<polygon fill="black" stroke="black" stroke-width="1.5" points="333.63,-187.55 330.13,-177.55 326.63,-187.55 333.63,-187.55"/>
</g>
<!-- heat -->
<g id="node7" class="node">
<title>heat</title>
<polygon fill="#ffe4b5" stroke="#ff4500" stroke-width="2" points="210.75,-177.25 105.5,-177.25 105.5,-122 210.75,-122 210.75,-177.25"/>
<text xml:space="preserve" text-anchor="middle" x="158.12" y="-163.75" font-family="Arial" font-size="10.00">HEAT REUSE</text>
<text xml:space="preserve" text-anchor="middle" x="158.12" y="-151.75" font-family="Arial" font-size="10.00">━━━━━</text>
<text xml:space="preserve" text-anchor="middle" x="158.12" y="-140.5" font-family="Arial" font-size="10.00">Waste Heat Capture</text>
<text xml:space="preserve" text-anchor="middle" x="158.12" y="-128.5" font-family="Arial" font-size="10.00">From Mining</text>
</g>
<!-- mining&#45;&gt;heat -->
<g id="edge9" class="edge">
<title>mining&#45;&gt;heat</title>
<path fill="none" stroke="#ff4500" stroke-width="3" d="M165.35,-262.36C164.06,-242.43 162.29,-215.13 160.83,-192.5"/>
<polygon fill="#ff4500" stroke="#ff4500" stroke-width="3" points="164.33,-192.36 160.19,-182.61 157.34,-192.82 164.33,-192.36"/>
</g>
<!-- mining&#45;&gt;revenue -->
<g id="edge14" class="edge">
<title>mining&#45;&gt;revenue</title>
<path fill="none" stroke="black" stroke-width="1.5" stroke-dasharray="5,2" d="M199.33,-262.36C226,-239.58 263.96,-207.15 292.12,-183.09"/>
<polygon fill="black" stroke="black" stroke-width="1.5" points="294.21,-185.91 299.54,-176.75 289.66,-180.59 294.21,-185.91"/>
</g>
<!-- hotwater -->
<g id="node8" class="node">
<title>hotwater</title>
<polygon fill="#ffe4e1" stroke="#ff6347" stroke-width="1.5" points="60.25,-36 0,-36 0,0 60.25,0 60.25,-36"/>
<text xml:space="preserve" text-anchor="middle" x="30.12" y="-14.5" font-family="Arial" font-size="10.00">Hot Water</text>
</g>
<!-- heat&#45;&gt;hotwater -->
<g id="edge10" class="edge">
<title>heat&#45;&gt;hotwater</title>
<path fill="none" stroke="#ff4500" stroke-width="2" d="M130.98,-121.13C108.99,-98.87 78.19,-67.68 56.43,-45.64"/>
<polygon fill="#ff4500" stroke="#ff4500" stroke-width="2" points="59.06,-43.33 49.55,-38.67 54.08,-48.24 59.06,-43.33"/>
</g>
<!-- heating -->
<g id="node9" class="node">
<title>heating</title>
<polygon fill="#ffe4e1" stroke="#ff6347" stroke-width="1.5" points="198.38,-36 117.88,-36 117.88,0 198.38,0 198.38,-36"/>
<text xml:space="preserve" text-anchor="middle" x="158.12" y="-20.5" font-family="Arial" font-size="10.00">Space Heating</text>
<text xml:space="preserve" text-anchor="middle" x="158.12" y="-8.5" font-family="Arial" font-size="10.00">Radiant Floors</text>
</g>
<!-- heat&#45;&gt;heating -->
<g id="edge11" class="edge">
<title>heat&#45;&gt;heating</title>
<path fill="none" stroke="#ff4500" stroke-width="2" d="M158.12,-121.13C158.12,-100.06 158.12,-71.01 158.12,-49.27"/>
<polygon fill="#ff4500" stroke="#ff4500" stroke-width="2" points="161.63,-49.54 158.13,-39.54 154.63,-49.54 161.63,-49.54"/>
</g>
<!-- hottub -->
<g id="node10" class="node">
<title>hottub</title>
<polygon fill="#ffe4e1" stroke="#ff6347" stroke-width="1.5" points="327.5,-36 256.75,-36 256.75,0 327.5,0 327.5,-36"/>
<text xml:space="preserve" text-anchor="middle" x="292.12" y="-20.5" font-family="Arial" font-size="10.00">Hot Tub/Spa</text>
<text xml:space="preserve" text-anchor="middle" x="292.12" y="-8.5" font-family="Arial" font-size="10.00">Year&#45;round</text>
</g>
<!-- heat&#45;&gt;hottub -->
<g id="edge12" class="edge">
<title>heat&#45;&gt;hottub</title>
<path fill="none" stroke="#ff4500" stroke-width="2" d="M186.54,-121.13C209.67,-98.77 242.09,-67.4 264.89,-45.34"/>
<polygon fill="#ff4500" stroke="#ff4500" stroke-width="2" points="267.09,-48.09 271.84,-38.62 262.22,-43.06 267.09,-48.09"/>
</g>
</g>
</svg>
